<?xml version="1.0" encoding="utf-8"?>
<!-- Generator: Adobe Illustrator 19.0.0, SVG Export Plug-In . SVG Version: 6.00 Build 0)  -->
<svg version="1.1" id="Layer_1" xmlns="http://www.w3.org/2000/svg" xmlns:xlink="http://www.w3.org/1999/xlink" x="0px" y="0px"
	 viewBox="0 0 414 414" style="enable-background:new 0 0 414 414;" xml:space="preserve">
<style type="text/css">
	.st0{fill:#FFBC50;}
	.st1{fill:#FFFFFF;}
	.st2{fill:#DA755E;}
	.st3{fill:#AC6C82;}
</style>
<g id="XMLID_23_">
	<g id="XMLID_878_">
		<g id="XMLID_950_">
			<path id="XMLID_372_" class="st0" d="M63.7,243c-18.4,0-26.9-10.3-35.2-20.2c-5.2-6.2-10.5-12.6-18.1-15.8
				c7.6-3.1,12.9-9.4,18-15.5c8.3-9.8,16.8-19.9,35.2-19.9c19.7,0,35.7,16,35.7,35.7C99.4,227,83.4,243,63.7,243z"/>
			<path id="XMLID_369_" class="st1" d="M63.7,173.6c18.6,0,33.7,15.1,33.7,33.7c0,18.6-15.1,33.7-33.7,33.7
				c-17.5,0-25.3-9.5-33.7-19.5c-4.5-5.4-9-10.9-15.1-14.5c6-3.5,10.6-8.9,15-14.2C38.3,182.9,46.2,173.6,63.7,173.6 M63.7,169.6
				C27.5,169.6,27.5,207,0,207c27.5,0,27.5,38,63.7,38c20.8,0,37.7-16.9,37.7-37.7S84.5,169.6,63.7,169.6L63.7,169.6z"/>
		</g>
		<g id="XMLID_945_">
			<path id="XMLID_367_" class="st0" d="M207,403.6c-3.1-7.6-9.4-12.9-15.5-18c-9.8-8.3-19.9-16.8-19.9-35.2
				c0-19.7,16-35.7,35.7-35.7c19.7,0,35.7,16,35.7,35.7c0,18.4-10.3,26.9-20.2,35.2C216.5,390.7,210.2,396,207,403.6z"/>
			<path id="XMLID_364_" class="st1" d="M207.3,316.6c18.6,0,33.7,15.1,33.7,33.7c0,17.5-9.5,25.3-19.5,33.7
				c-5.4,4.5-10.9,9-14.5,15.1c-3.5-6-8.9-10.6-14.2-15c-9.9-8.3-19.2-16.2-19.2-33.7C173.6,331.7,188.7,316.6,207.3,316.6
				 M207.3,312.6c-20.8,0-37.7,16.9-37.7,37.7c0,36.2,37.4,36.2,37.4,63.7c0-27.5,38-27.5,38-63.7
				C245,329.5,228.1,312.6,207.3,312.6L207.3,312.6z"/>
		</g>
		<g id="XMLID_942_">
			<path id="XMLID_362_" class="st0" d="M206.7,99.4c-19.7,0-35.7-16-35.7-35.7c0-18.4,10.3-26.9,20.2-35.2
				c6.2-5.2,12.6-10.5,15.8-18.1c3.1,7.6,9.4,12.9,15.5,18c9.8,8.3,19.9,16.8,19.9,35.2C242.4,83.4,226.4,99.4,206.7,99.4z"/>
			<path id="XMLID_359_" class="st1" d="M207,15c3.5,6,8.9,10.6,14.2,15c9.9,8.3,19.2,16.2,19.2,33.7c0,18.6-15.1,33.7-33.7,33.7
				S173,82.3,173,63.7c0-17.5,9.5-25.3,19.5-33.7C197.9,25.6,203.4,21,207,15 M207,0c0,27.5-38,27.5-38,63.7
				c0,20.8,16.9,37.7,37.7,37.7s37.7-16.9,37.7-37.7C244.4,27.5,207,27.5,207,0L207,0z"/>
		</g>
		<g id="XMLID_939_">
			<path id="XMLID_357_" class="st0" d="M135.1,118.8c-12.7,0-24.6-6.8-31-17.9C95,85,99.6,72.4,104.1,60.3
				c2.8-7.6,5.7-15.4,4.6-23.5c6.5,5,14.6,6.5,22.5,7.9c12.6,2.3,25.6,4.6,34.8,20.5c9.8,17,4,38.9-13.1,48.8
				C147.5,117.1,141.4,118.8,135.1,118.8z"/>
			<path id="XMLID_354_" class="st1" d="M111,40.7c6.1,3.4,13,4.7,19.8,5.9c12.7,2.3,24.7,4.4,33.5,19.6c4.5,7.8,5.7,16.9,3.4,25.6
				s-7.9,16-15.7,20.5c-5.1,3-10.9,4.5-16.8,4.5c-12,0-23.2-6.5-29.2-16.9c-8.7-15.1-4.5-26.7,0.1-38.9
				C108.4,54.4,110.9,47.7,111,40.7 M103.5,27.7c13.8,23.8-19.2,42.8-1.1,74.2c7,12.1,19.7,18.9,32.7,18.9c6.4,0,12.9-1.6,18.8-5.1
				c18-10.4,24.2-33.5,13.8-51.5C149.6,32.8,117.2,51.5,103.5,27.7L103.5,27.7z"/>
		</g>
		<g id="XMLID_935_">
			<path id="XMLID_352_" class="st0" d="M82.7,171.3c-6.2,0-12.4-1.7-17.8-4.8c-15.9-9.2-18.2-22.4-20.4-35.1
				c-1.4-8-2.8-16.1-7.7-22.7c1.2,0.2,2.5,0.2,3.7,0.2c0,0,0,0,0,0c6.7,0,13-2.3,19.6-4.7c6.8-2.5,13.9-5,21.6-5
				c6.4,0,12.5,1.8,18.8,5.4c17,9.8,22.9,31.7,13.1,48.8C107.3,164.5,95.4,171.3,82.7,171.3z"/>
			<path id="XMLID_349_" class="st1" d="M81.8,101.3c6,0,11.9,1.7,17.8,5.1c7.8,4.5,13.4,11.8,15.7,20.5c2.3,8.7,1.1,17.8-3.4,25.6
				c-6,10.4-17.2,16.9-29.2,16.9c-5.9,0-11.7-1.6-16.8-4.5c-15.1-8.7-17.2-20.9-19.4-33.7c-1.2-6.9-2.4-13.9-5.8-20.1
				c7,0,13.7-2.5,20.1-4.8C67.5,103.8,74.4,101.3,81.8,101.3 M81.8,97.3c-15.5,0-28.1,9.7-41.3,9.7c-4.2,0-8.4-1-12.8-3.5
				c23.8,13.8,4.8,46.7,36.2,64.8c5.9,3.4,12.4,5.1,18.8,5.1c13,0,25.7-6.8,32.7-18.9c10.4-18,4.2-41.1-13.8-51.5
				C94.4,98.8,87.9,97.3,81.8,97.3L81.8,97.3z"/>
		</g>
		<g id="XMLID_933_">
			<path id="XMLID_347_" class="st0" d="M82.3,315.1c-7.8,0-15-2.7-22-5.2c-6.8-2.5-13.2-4.9-19.9-4.9c-1.2,0-2.4,0.1-3.6,0.2
				c5-6.5,6.5-14.5,7.9-22.4c2.3-12.6,4.6-25.6,20.5-34.8c5.4-3.1,11.6-4.8,17.8-4.8c12.7,0,24.6,6.8,31,17.9
				c4.8,8.3,6,17.9,3.6,27.1c-2.5,9.2-8.4,16.9-16.6,21.7C94.7,313.4,88.6,315.1,82.3,315.1z"/>
			<path id="XMLID_344_" class="st1" d="M83,241v4h0c12,0,23.2,6.6,29.2,17c4.5,7.8,5.7,16.9,3.4,25.6c-2.3,8.7-7.9,16-15.7,20.5
				c-5.9,3.4-11.6,5.1-17.6,5.1c-7.5,0-14.5-2.6-21.3-5.1c-6.5-2.4-13.3-4.9-20.3-5c3.4-6.1,4.7-13,5.9-19.8
				c2.3-12.7,4.4-24.7,19.6-33.5c5.1-3,10.9-4.5,16.8-4.5l0-4 M83,241.2c-6.4,0-12.9,1.6-18.8,5.1c-31.4,18.1-12.7,50.5-36.5,64.2
				c4.3-2.5,8.5-3.5,12.6-3.5c13.4,0,26.2,10.1,41.9,10.1c6,0,12.5-1.5,19.6-5.6c18-10.4,24.2-33.5,13.8-51.5
				C108.7,248,96,241.2,83,241.2L83,241.2z"/>
		</g>
		<g id="XMLID_926_">
			<path id="XMLID_342_" class="st0" d="M108.7,377.2c1.1-8.1-1.7-15.8-4.4-23.4c-4.3-12-8.8-24.5,0.4-40.4
				c6.4-11,18.2-17.9,31-17.9c6.2,0,12.4,1.7,17.8,4.8c17,9.8,22.9,31.7,13.1,48.8c-9.2,15.9-22.4,18.2-35.1,20.4
				C123.4,370.8,115.3,372.2,108.7,377.2z"/>
			<path id="XMLID_339_" class="st1" d="M136,294v3.5c6,0,11.5,1.6,16.6,4.5c16.1,9.3,21.5,29.9,12.2,46
				c-8.7,15.1-20.9,17.2-33.8,19.4c-6.9,1.2-14,2.4-20.1,5.8c0-7-2.5-13.6-4.8-20.1c-4.4-12.2-8.5-23.6,0.2-38.8
				c6-10.4,17.4-16.9,29.4-16.9l0.2-4 M135.6,293.5c-13,0-25.7,6.8-32.7,18.9c-18.1,31.4,14.3,50.1,0.5,73.9
				c13.8-23.8,46.7-4.8,64.8-36.2c10.4-18,4.2-41.1-13.8-51.5C148.5,295.2,142,293.5,135.6,293.5L135.6,293.5z"/>
		</g>
		<g id="XMLID_925_">
			<path id="XMLID_337_" class="st0" d="M305.3,377.2c-6.5-5-14.6-6.5-22.5-7.9c-12.6-2.3-25.6-4.6-34.8-20.5
				c-4.8-8.3-6-17.9-3.6-27.1c2.5-9.2,8.4-16.9,16.6-21.7c5.4-3.1,11.6-4.8,17.8-4.8c12.7,0,24.6,6.8,31,17.9
				c9.2,15.9,4.6,28.5,0.1,40.6C307.1,361.3,304.2,369.1,305.3,377.2z"/>
			<path id="XMLID_334_" class="st1" d="M279,293v4h-0.1c12,0,23.2,6.6,29.2,17c8.7,15.1,4.4,26.7-0.1,39c-2.4,6.6-4.9,13.3-5,20.3
				c-6.1-3.4-13-4.7-19.8-5.9c-12.7-2.3-24.7-4.4-33.5-19.6c-9.3-16.1-3.8-36.7,12.3-46c5.1-3,11-4.5,16.9-4.5l0.1-4 M278.9,293.2
				c-6.4,0-12.9,1.6-18.8,5.1c-18,10.4-24.2,33.5-13.8,51.5c18.1,31.4,50.5,12.7,64.2,36.5c-13.8-23.8,19.2-42.8,1.1-74.2
				C304.6,300,291.9,293.2,278.9,293.2L278.9,293.2z"/>
		</g>
		<g id="XMLID_924_">
			<path id="XMLID_332_" class="st0" d="M332.2,315c-6.4,0-12.5-1.9-18.8-5.5c-8.3-4.8-14.2-12.5-16.6-21.8
				c-2.5-9.2-1.2-18.9,3.6-27.1c6.4-11,18.2-17.9,31-17.9c6.2,0,12.4,1.6,17.8,4.8c15.9,9.2,18.2,22.4,20.4,35.1
				c1.4,8,2.8,16.1,7.7,22.7c-1.2-0.2-2.5-0.3-3.7-0.3c-6.7,0-13,2.4-19.6,4.8C347,312.3,339.9,315,332.2,315L332.2,315z"/>
			<path id="XMLID_329_" class="st1" d="M331.3,244.7c5.9,0,11.7,1.6,16.8,4.5c15.1,8.7,17.2,20.9,19.4,33.7
				c1.2,6.9,2.4,13.9,5.8,20.1c-7,0-13.7,2.5-20.1,4.8c-6.7,2.4-13.6,4.9-20.9,4.9c-6,0-11.9-1.7-17.8-5.1
				c-7.8-4.5-13.4-11.8-15.7-20.5c-2.3-8.7-1.1-17.8,3.4-25.6C308.1,251.1,319.3,244.7,331.3,244.7 M331.3,240.7
				c-13,0-25.7,6.8-32.7,18.9c-10.4,18-4.2,41.1,13.8,51.5c7.2,4.2,13.7,5.7,19.8,5.7c15.5,0,28.1-9.7,41.3-9.7
				c4.2,0,8.4,1,12.8,3.5c-23.8-13.8-4.8-46.7-36.2-64.8C344.2,242.3,337.7,240.7,331.3,240.7L331.3,240.7z"/>
		</g>
		<g id="XMLID_883_">
			<path id="XMLID_327_" class="st0" d="M350.3,242.4c-19.7,0-35.7-16-35.7-35.7c0-19.7,16-35.7,35.7-35.7
				c18.4,0,26.9,10.3,35.2,20.2c5.2,6.2,10.5,12.6,18.1,15.8c-7.6,3.1-12.9,9.4-18,15.5C377.3,232.3,368.7,242.4,350.3,242.4z"/>
			<path id="XMLID_324_" class="st1" d="M350.3,173c17.5,0,25.3,9.5,33.7,19.5c4.5,5.4,9,10.9,15.1,14.5c-6,3.5-10.6,8.9-15,14.2
				c-8.3,9.9-16.2,19.2-33.7,19.2c-18.6,0-33.7-15.1-33.7-33.7C316.6,188.1,331.7,173,350.3,173 M350.3,169
				c-20.8,0-37.7,16.9-37.7,37.7s16.9,37.7,37.7,37.7c36.2,0,36.2-37.4,63.7-37.4C386.5,207,386.5,169,350.3,169L350.3,169z"/>
		</g>
		<g id="XMLID_882_">
			<path id="XMLID_322_" class="st0" d="M331,170.8c-12.7,0-24.6-6.8-31-17.9c-4.8-8.3-6-17.9-3.6-27.1s8.4-16.9,16.6-21.7
				c6.2-3.6,12.3-5.3,18.6-5.3c7.8,0,15,2.7,22,5.2c6.8,2.5,13.2,4.9,19.9,4.9c1.2,0,2.4-0.1,3.6-0.2c-5,6.5-6.5,14.5-7.9,22.4
				c-2.3,12.6-4.6,25.6-20.5,34.8C343.4,169.1,337.2,170.8,331,170.8z"/>
			<path id="XMLID_319_" class="st1" d="M331.7,100.9c7.5,0,14.5,2.6,21.3,5.1c6.5,2.4,13.3,4.9,20.3,5c-3.4,6.1-4.7,13-5.9,19.8
				c-2.3,12.7-4.4,24.7-19.6,33.5c-5.1,3-10.9,4.5-16.8,4.5c-12,0-23.2-6.5-29.2-16.9c-4.5-7.8-5.7-16.9-3.4-25.6
				c2.3-8.7,7.9-16,15.7-20.5C320,102.5,325.7,100.9,331.7,100.9 M331.7,96.9c-6,0-12.5,1.5-19.6,5.6c-18,10.4-24.2,33.5-13.8,51.5
				c7,12.1,19.7,18.9,32.7,18.9c6.4,0,12.9-1.6,18.8-5.1c31.4-18.1,12.7-50.5,36.5-64.2c-4.3,2.5-8.5,3.5-12.6,3.5
				C360.3,107,347.5,96.9,331.7,96.9L331.7,96.9z"/>
		</g>
		<g id="XMLID_881_">
			<path id="XMLID_317_" class="st0" d="M278.4,118.5c-6.2,0-12.4-1.7-17.8-4.8c-8.3-4.8-14.2-12.5-16.6-21.7
				c-2.5-9.2-1.2-18.8,3.6-27.1c9.2-15.9,22.4-18.2,35.1-20.4c8-1.4,16.1-2.8,22.7-7.8c-1.1,8.1,1.7,15.8,4.4,23.4
				c4.3,12,8.8,24.5-0.4,40.4C302.9,111.6,291.1,118.5,278.4,118.5z"/>
			<path id="XMLID_314_" class="st1" d="M303,40.7c0,7,2.4,13.6,4.8,20.1c4.4,12.2,8.5,23.6-0.2,38.8c-6,10.4-17.2,16.9-29.2,16.9
				c-5.9,0-11.7-1.6-16.8-4.5c-7.8-4.5-13.4-11.8-15.7-20.5c-2.3-8.7-1.1-17.8,3.4-25.6c8.7-15.1,20.9-17.2,33.7-19.4
				C289.8,45.3,296.9,44.1,303,40.7 M310.5,27.7c-13.8,23.8-46.7,4.8-64.8,36.2c-10.4,18-4.2,41.1,13.8,51.5
				c5.9,3.4,12.4,5.1,18.8,5.1c13,0,25.7-6.8,32.7-18.9C329.1,70.2,296.8,51.5,310.5,27.7L310.5,27.7z"/>
		</g>
	</g>
	<g id="XMLID_864_">
		<g id="XMLID_877_">
			<path id="XMLID_312_" class="st2" d="M92,322c2.3-6.1,1.8-12.7,1.2-19.1c-0.9-10.5-1.8-21.4,8.9-32.2c5.5-5.5,12.9-8.6,20.8-8.6
				c7.8,0,15.2,3.1,20.8,8.6c11.4,11.5,11.4,30.1,0,41.5c-8.2,8.2-16.6,9.3-22.9,9.3c-3.2,0-6.4-0.3-9.4-0.6c-3-0.3-6.1-0.6-9-0.6
				C99.2,320.4,95.6,320.7,92,322z"/>
			<path id="XMLID_309_" class="st1" d="M122.9,264.1c7.3,0,14.2,2.8,19.4,8c10.7,10.7,10.7,28,0,38.7c-7.7,7.7-15.2,8.7-21.5,8.7
				c-3.1,0-6.2-0.3-9.3-0.6c-3-0.3-6.2-0.6-9.2-0.6c-2.2,0-4.7,0.1-7.3,0.7c1.2-5.4,0.7-10.9,0.2-16.4c-0.9-10.5-1.7-20.5,8.3-30.6
				C108.7,267,115.6,264.1,122.9,264.1 M122.9,260.1c-8,0-16.1,3.1-22.2,9.2c-21.3,21.3,0.7,43.3-15.5,59.5c5.1-5.1,10.9-6.4,17-6.4
				c5.9,0,12.1,1.1,18.5,1.1c8,0,16.2-1.8,24.3-9.9c12.2-12.2,12.2-32.1,0-44.4C138.9,263.2,130.9,260.1,122.9,260.1L122.9,260.1z"
				/>
		</g>
		<g id="XMLID_876_">
			<path id="XMLID_307_" class="st2" d="M322,322c-3.8-1.4-7.4-1.7-10.6-1.7c-2.8,0-5.8,0.2-8.6,0.5c-2.9,0.2-5.9,0.5-9,0.5
				c-6.8,0-14.9-1.1-23.2-9.4c-5.5-5.5-8.6-12.9-8.6-20.8c0-7.8,3.1-15.2,8.6-20.8c5.5-5.5,12.9-8.6,20.8-8.6
				c7.8,0,15.2,3.1,20.8,8.6c10.7,10.7,9.7,21.7,8.7,32.3C320.4,309.2,319.7,315.8,322,322z"/>
			<path id="XMLID_304_" class="st1" d="M291.5,263.8c7.3,0,14.2,2.8,19.4,8c10.1,10.1,9.1,20.1,8.1,30.7c-0.5,5.5-1,11.1,0.1,16.5
				c-2.7-0.6-5.3-0.7-7.6-0.7c-2.9,0-5.9,0.3-8.8,0.5c-2.9,0.2-5.9,0.5-8.8,0.5c-6.4,0-14-1-21.8-8.8c-5.2-5.2-8-12-8-19.4
				c0-7.3,2.8-14.2,8-19.4C277.3,266.6,284.2,263.8,291.5,263.8 M291.5,259.8c-8,0-16.1,3.1-22.2,9.2c-12.2,12.2-12.2,32.1,0,44.4
				c8.2,8.2,16.6,10,24.6,10c6.1,0,11.9-1,17.5-1c6.2,0,12.1,1.2,17.3,6.5c-16.2-16.2,6.2-38.5-15.1-59.8
				C307.5,262.8,299.5,259.8,291.5,259.8L291.5,259.8z"/>
		</g>
		<g id="XMLID_875_">
			<path id="XMLID_302_" class="st2" d="M122.5,152.2c-7.8,0-15.2-3.1-20.8-8.6c-10.7-10.7-9.7-21.7-8.7-32.3
				c0.6-6.5,1.2-13-1.1-19.2c3.8,1.4,7.4,1.9,10.6,1.9c0,0,0,0,0,0c2.8,0,5.8-0.4,8.6-0.6c2.9-0.2,5.9-0.6,8.9-0.6
				c6.8,0,14.9,1.1,23.2,9.4c11.4,11.5,11.4,30.1,0,41.5C137.7,149.2,130.4,152.2,122.5,152.2z"/>
			<path id="XMLID_299_" class="st1" d="M120.1,94.7c6.4,0,14,1,21.8,8.8c5.2,5.2,8,12,8,19.4c0,7.3-2.8,14.2-8,19.4
				c-5.2,5.2-12,8-19.4,8c-7.3,0-14.2-2.8-19.4-8c-10.1-10.1-9.1-20.1-8.1-30.7c0.5-5.5,1-11.1-0.1-16.5c2.7,0.6,5.3,0.7,7.6,0.7
				c2.9,0,5.9-0.3,8.8-0.5C114.2,95,117.2,94.7,120.1,94.7 M85.2,85.2c16.2,16.2-6.2,38.5,15.1,59.8c6.1,6.1,14.2,9.2,22.2,9.2
				c8,0,16.1-3.1,22.2-9.2c12.2-12.2,12.2-32.1,0-44.4c-8.2-8.2-16.6-10-24.6-10c-6.1,0-11.9,1-17.5,1
				C96.3,91.7,90.5,90.5,85.2,85.2L85.2,85.2z"/>
		</g>
		<g id="XMLID_874_">
			<path id="XMLID_297_" class="st2" d="M91.8,205.8c-2.6,0-5.1-0.3-7.6-1c-14.6-3.9-19.3-14-23.7-23.7c-2.7-5.9-5.5-12-10.6-16.2
				c6.4-1,11.7-4.7,17.2-8.5c6.8-4.7,13.8-9.6,23.5-9.6c2.8,0,5.8,0.4,8.8,1.2c15.6,4.2,25,20.3,20.8,36
				C116.7,196.8,105,205.8,91.8,205.8z"/>
			<path id="XMLID_294_" class="st1" d="M90.6,148.8c2.6,0,5.4,0.4,8.3,1.2c14.6,3.9,23.3,18.9,19.4,33.5
				c-3.2,11.9-14.1,20.3-26.4,20.3c-2.4,0-4.8-0.3-7.1-0.9C71,199.1,66.7,190,62.3,180.3c-2.3-5-4.7-10.1-8.4-14.3
				c5.3-1.7,9.8-4.9,14.3-8C75,153.3,81.5,148.8,90.6,148.8 M90.6,144.8c-19.6,0-28.5,18.4-44.2,18.4c-1.8,0-3.7-0.2-5.7-0.8
				c22.1,5.9,13.9,36.5,43,44.3c2.7,0.7,5.5,1.1,8.1,1.1c13.8,0,26.5-9.2,30.3-23.3c4.5-16.7-5.4-33.9-22.2-38.4
				C96.5,145.2,93.4,144.8,90.6,144.8L90.6,144.8z"/>
		</g>
		<g id="XMLID_873_">
			<path id="XMLID_292_" class="st2" d="M90.8,267.7c-9.8,0-16.8-5-23.7-9.8c-5.5-3.9-10.8-7.7-17.3-8.7c5.1-4.2,7.9-10.1,10.6-16
				c4.5-9.6,9.1-19.5,23.8-23.4c2.5-0.7,5.1-1,7.6-1c13.3,0,24.9,9,28.3,21.8c4.2,15.6-5.1,31.8-20.8,36
				C96.5,267.3,93.6,267.7,90.8,267.7z"/>
			<path id="XMLID_289_" class="st1" d="M92,207v3.7c12,0,23.2,8.3,26.4,20.3c3.9,14.6-4.8,29.6-19.4,33.5c-2.8,0.8-5.6,1.1-8.2,1.1
				c-9.1,0-15.6-4.6-22.5-9.5c-4.5-3.2-9.1-6.4-14.4-8.2c3.7-4.1,6.1-9.1,8.4-14.1c4.5-9.6,8.7-18.6,22.5-22.3
				c2.3-0.6,4.8-0.9,7.1-0.9l0-4 M91.9,206.7c-2.7,0-5.4,0.3-8.1,1.1c-29.1,7.8-21,37.9-43.1,43.8c2-0.5,3.8-0.8,5.6-0.8
				c15.8,0,24.8,18.9,44.5,18.9c2.8,0,5.9-0.4,9.2-1.3c16.7-4.5,26.7-21.7,22.2-38.4C118.4,216,105.8,206.7,91.9,206.7L91.9,206.7z"
				/>
		</g>
		<g id="XMLID_872_">
			<path id="XMLID_287_" class="st2" d="M164.9,364.1c-1.1-6.5-4.8-11.9-8.5-17.2c-6-8.7-12.3-17.7-8.4-32.3
				c3.4-12.8,15.1-21.8,28.3-21.8c2.6,0,5.1,0.3,7.6,1c15.6,4.2,25,20.3,20.8,36c-3.9,14.6-14,19.3-23.7,23.7
				C175.2,356.3,169.1,359.1,164.9,364.1z"/>
			<path id="XMLID_284_" class="st1" d="M176,291v3.9c3,0,5,0.3,7.3,0.9c7.1,1.9,13.1,6.4,16.7,12.8s4.7,13.7,2.8,20.8
				c-3.7,13.7-12.8,17.9-22.5,22.4c-5,2.3-10.1,4.7-14.2,8.4c-1.7-5.2-4.9-9.8-8-14.3c-6-8.7-11.8-16.9-8.1-30.6
				c3.2-11.9,13.9-20.3,26.2-20.3l-0.2-4 M176.4,290.9c-13.8,0-26.5,9.2-30.3,23.3c-7.8,29.1,22.3,37.1,16.3,59.2
				c5.9-22.1,36.5-13.9,44.3-43c4.5-16.7-5.4-33.9-22.2-38.4C181.8,291.2,179.1,290.9,176.4,290.9L176.4,290.9z"/>
		</g>
		<g id="XMLID_871_">
			<path id="XMLID_282_" class="st2" d="M249.1,364.1c-4.2-5.1-10.1-7.9-16-10.6c-9.6-4.5-19.5-9.1-23.4-23.8
				c-4.2-15.6,5.1-31.8,20.8-36c2.5-0.7,5.1-1,7.6-1c13.3,0,24.9,9,28.3,21.8c3.9,14.6-2.5,23.6-8.6,32.4
				C254.1,352.2,250.2,357.6,249.1,364.1z"/>
			<path id="XMLID_279_" class="st1" d="M238,291v3.7c12,0,23.3,8.3,26.5,20.3c3.7,13.7-2.1,22-8.3,30.7c-3.2,4.5-6.4,9.1-8.1,14.4
				c-4.1-3.7-9.1-6.1-14-8.4c-9.6-4.5-18.6-8.8-22.3-22.5c-3.9-14.6,4.8-29.6,19.4-33.5c2.3-0.6,4.7-0.9,7-0.9l-0.1-4 M238.1,290.7
				c-2.7,0-5.4,0.3-8.1,1.1c-16.7,4.5-26.7,21.7-22.2,38.4c7.8,29.1,37.9,21,43.8,43.1c-5.9-22.1,24.6-30.3,16.8-59.4
				C264.6,300,252,290.7,238.1,290.7L238.1,290.7z"/>
		</g>
		<g id="XMLID_870_">
			<path id="XMLID_277_" class="st2" d="M323.4,267.2c-2.8,0-5.8-0.4-8.8-1.2c-15.6-4.2-25-20.3-20.8-36
				c3.4-12.8,15.1-21.8,28.3-21.8c2.6,0,5.1,0.3,7.6,1c14.6,3.9,19.3,14,23.7,23.7c2.7,5.9,5.5,12,10.6,16.2
				c-6.4,1-11.7,4.7-17.2,8.5C340.2,262.3,333.1,267.2,323.4,267.2z"/>
			<path id="XMLID_274_" class="st1" d="M322.2,210.2c2.4,0,4.8,0.3,7.1,0.9c13.7,3.7,17.9,12.8,22.4,22.6c2.3,5,4.7,10.1,8.4,14.3
				c-5.3,1.7-9.8,4.9-14.3,8c-6.8,4.8-13.3,9.2-22.3,9.2c-2.6,0-5.4-0.4-8.3-1.2c-7.1-1.9-13-6.4-16.6-12.8s-4.6-13.7-2.7-20.8
				C299,218.6,309.9,210.2,322.2,210.2 M322.2,206.2c-13.8,0-26.5,9.2-30.3,23.3c-4.5,16.7,5.4,33.9,22.2,38.4
				c3.4,0.9,6.5,1.3,9.3,1.3c19.6,0,28.5-18.4,44.2-18.4c1.8,0,3.7,0.2,5.7,0.8c-22.1-5.9-13.9-36.5-43-44.3
				C327.6,206.6,324.9,206.2,322.2,206.2L322.2,206.2z"/>
		</g>
		<g id="XMLID_868_">
			<path id="XMLID_272_" class="st2" d="M322.1,205.3c-13.3,0-24.9-9-28.3-21.8c-2-7.6-1-15.5,2.9-22.3c3.9-6.8,10.3-11.7,17.8-13.7
				c3-0.8,5.9-1.2,8.7-1.2c9.8,0,16.8,5,23.7,9.8c5.5,3.9,10.8,7.7,17.3,8.7c-5.1,4.2-7.9,10.1-10.6,16c-4.5,9.6-9.1,19.5-23.8,23.4
				C327.2,204.9,324.6,205.3,322.1,205.3z"/>
			<path id="XMLID_269_" class="st1" d="M323.2,148.3c9.1,0,15.6,4.6,22.5,9.5c4.5,3.2,9.1,6.4,14.4,8.2c-3.7,4.1-6.1,9.1-8.4,14.1
				c-4.5,9.6-8.8,18.6-22.5,22.3c-2.3,0.6-4.7,0.9-7.1,0.9c-12.4,0-23.2-8.3-26.4-20.3c-3.9-14.6,4.8-29.6,19.4-33.5
				C317.9,148.7,320.6,148.3,323.2,148.3 M323.2,144.3c-2.8,0-5.9,0.4-9.2,1.3c-16.7,4.5-26.7,21.7-22.2,38.4
				c3.8,14,16.4,23.3,30.3,23.3c2.7,0,5.4-0.3,8.1-1.1c29.1-7.8,21-37.9,43.1-43.8c-2,0.5-3.8,0.8-5.6,0.8
				C351.9,163.2,342.9,144.3,323.2,144.3L323.2,144.3z"/>
		</g>
		<g id="XMLID_867_">
			<path id="XMLID_267_" class="st2" d="M291.1,151.9c-7.8,0-15.2-3.1-20.8-8.6c-11.4-11.5-11.4-30.1,0-41.5
				c8.2-8.2,16.6-9.3,22.9-9.3c3.2,0,6.4,0.3,9.4,0.6c3,0.3,6.1,0.6,9,0.6c3,0,6.6-0.3,10.3-1.6c-2.3,6.1-1.8,12.7-1.2,19.1
				c0.9,10.5,1.8,21.4-8.9,32.2C306.3,148.8,299,151.9,291.1,151.9z"/>
			<path id="XMLID_264_" class="st1" d="M293.3,94.5c3.1,0,6.2,0.3,9.3,0.6c3,0.3,6.2,0.6,9.2,0.6c2.2,0,4.7-0.1,7.3-0.7
				c-1.2,5.4-0.7,10.9-0.2,16.4c0.9,10.5,1.7,20.5-8.3,30.6c-5.2,5.2-12,8-19.4,8s-14.2-2.8-19.4-8c-10.7-10.7-10.7-28,0-38.7
				C279.4,95.5,286.9,94.5,293.3,94.5 M328.8,85.2c-5.1,5.1-10.9,6.4-17,6.4c-5.9,0-12.1-1.1-18.5-1.1c-8,0-16.2,1.8-24.3,9.9
				c-12.2,12.2-12.2,32.1,0,44.4c6.1,6.1,14.2,9.2,22.2,9.2s16.1-3.1,22.2-9.2C334.6,123.4,312.6,101.4,328.8,85.2L328.8,85.2z"/>
		</g>
		<g id="XMLID_866_">
			<path id="XMLID_262_" class="st2" d="M237.6,121.1c-2.6,0-5.1-0.3-7.6-1c-7.6-2-13.9-6.9-17.8-13.7s-5-14.7-2.9-22.3
				c3.9-14.6,14-19.3,23.7-23.7c5.9-2.7,12-5.5,16.2-10.6c1.1,6.5,4.8,11.9,8.5,17.2c6,8.7,12.3,17.7,8.4,32.3
				C262.5,112.2,250.9,121.1,237.6,121.1z"/>
			<path id="XMLID_259_" class="st1" d="M248,53.9c1.7,5.2,4.9,9.8,8,14.3c6,8.7,11.8,16.9,8.1,30.6c-3.2,11.9-14.1,20.3-26.4,20.3
				c-2.4,0-4.8-0.3-7.1-0.9c-7.1-1.9-13-6.4-16.6-12.8c-3.7-6.3-4.6-13.7-2.7-20.8c3.7-13.7,12.8-17.9,22.6-22.4
				C238.8,60,243.9,57.6,248,53.9 M251.6,40.6c-5.9,22.1-36.5,13.9-44.3,43c-4.5,16.7,5.4,33.9,22.2,38.4c2.7,0.7,5.5,1.1,8.1,1.1
				c13.8,0,26.5-9.2,30.3-23.3C275.7,70.8,245.7,62.7,251.6,40.6L251.6,40.6z"/>
		</g>
		<g id="XMLID_865_">
			<path id="XMLID_257_" class="st2" d="M175.9,121.3c-13.3,0-24.9-9-28.3-21.8c-3.9-14.6,2.5-23.6,8.6-32.4
				c3.8-5.3,7.6-10.8,8.7-17.3c4.2,5.1,10.1,7.9,16,10.6c9.6,4.5,19.5,9.1,23.4,23.8c2,7.6,1,15.5-2.9,22.3
				c-3.9,6.8-10.3,11.7-17.8,13.7C181,120.9,178.4,121.3,175.9,121.3z"/>
			<path id="XMLID_254_" class="st1" d="M166,53.9c4.1,3.7,9.1,6.1,14.1,8.4c9.6,4.5,18.6,8.8,22.3,22.5
				c3.9,14.6-4.8,29.6-19.4,33.5c-2.3,0.6-4.7,0.9-7.1,0.9c-12.4,0-23.2-8.3-26.4-20.3c-3.7-13.7,2.2-22,8.3-30.7
				C161,63.8,164.2,59.2,166,53.9 M162.4,40.6c5.9,22.1-24.6,30.3-16.8,59.4c3.8,14,16.4,23.3,30.3,23.3c2.7,0,5.4-0.3,8.1-1.1
				c16.7-4.5,26.7-21.7,22.2-38.4C198.4,54.7,168.3,62.7,162.4,40.6L162.4,40.6z"/>
		</g>
	</g>
	<g id="XMLID_851_">
		<g id="XMLID_863_">
			<path id="XMLID_252_" class="st3" d="M111.6,230.3c-11.9,0-17.5-6.7-22.9-13.2c-3.2-3.8-6.4-7.8-10.9-10.1
				c4.5-2.3,7.7-6.1,10.9-9.9c5.4-6.4,11-13,22.9-13c12.7,0,23.1,10.4,23.1,23.1S124.4,230.3,111.6,230.3z"/>
			<path id="XMLID_249_" class="st1" d="M111.6,186.1c11.6,0,21.1,9.5,21.1,21.1s-9.5,21.1-21.1,21.1c-11,0-16-6.1-21.4-12.5
				c-2.5-3-5.2-6.3-8.6-8.8c3.4-2.4,6.1-5.6,8.6-8.6C95.6,192.1,100.6,186.1,111.6,186.1 M111.6,182.1c-24.1,0-24.1,24.9-42.4,24.9
				c18.3,0,18.3,25.3,42.4,25.3c13.9,0,25.1-11.2,25.1-25.1S125.5,182.1,111.6,182.1L111.6,182.1z"/>
		</g>
		<g id="XMLID_862_">
			<path id="XMLID_247_" class="st3" d="M207,336.2c-2.3-4.5-6.1-7.7-9.9-10.9c-6.4-5.4-13-11-13-22.9c0-12.7,10.4-23.1,23.1-23.1
				s23.1,10.4,23.1,23.1c0,11.9-6.7,17.5-13.2,22.9C213.2,328.5,209.3,331.7,207,336.2z"/>
			<path id="XMLID_244_" class="st1" d="M207.2,281.3c11.6,0,21.1,9.5,21.1,21.1c0,11-6.1,16-12.5,21.4c-3,2.5-6.3,5.2-8.8,8.6
				c-2.4-3.4-5.6-6.1-8.6-8.6c-6.3-5.3-12.3-10.4-12.3-21.4C186.1,290.7,195.6,281.3,207.2,281.3 M207.2,277.3
				c-13.9,0-25.1,11.2-25.1,25.1c0,24.1,24.9,24.1,24.9,42.4c0-18.3,25.3-18.3,25.3-42.4C232.3,288.5,221.1,277.3,207.2,277.3
				L207.2,277.3z"/>
		</g>
		<g id="XMLID_861_">
			<path id="XMLID_242_" class="st3" d="M206.8,134.7c-12.7,0-23.1-10.4-23.1-23.1c0-11.9,6.7-17.5,13.2-22.9
				c3.8-3.2,7.8-6.4,10.1-10.9c2.3,4.5,6.1,7.7,9.9,10.9c6.4,5.4,13,11,13,22.9C229.9,124.4,219.5,134.7,206.8,134.7z"/>
			<path id="XMLID_239_" class="st1" d="M207,81.6c2.4,3.4,5.6,6.1,8.6,8.6c6.3,5.3,12.3,10.4,12.3,21.4c0,11.6-9.5,21.1-21.1,21.1
				s-21.1-9.5-21.1-21.1c0-11,6.1-16,12.5-21.4C201.3,87.7,204.5,85,207,81.6 M207,69.2c0,18.3-25.3,18.3-25.3,42.4
				c0,13.9,11.2,25.1,25.1,25.1s25.1-11.2,25.1-25.1C231.9,87.5,207,87.5,207,69.2L207,69.2z"/>
		</g>
		<g id="XMLID_860_">
			<path id="XMLID_237_" class="st3" d="M159.2,147.6c-8.2,0-15.9-4.4-20-11.6c-6-10.3-2.9-18.5,0-26.5c1.7-4.7,3.5-9.5,3.3-14.5
				c4.2,2.7,9.2,3.6,14,4.5c8.2,1.5,16.8,3,22.7,13.3c6.4,11,2.6,25.2-8.5,31.5C167.2,146.5,163.2,147.6,159.2,147.6z"/>
			<path id="XMLID_234_" class="st1" d="M144.3,98.4c3.8,1.7,7.9,2.5,11.8,3.2c8.1,1.5,15.8,2.8,21.4,12.4c2.8,4.9,3.6,10.6,2.1,16
				c-1.5,5.4-4.9,10-9.8,12.8c-3.2,1.9-6.8,2.8-10.5,2.8c-7.5,0-14.5-4-18.3-10.6c-5.5-9.5-2.8-16.9,0.1-24.8
				C142.4,106.6,143.8,102.6,144.3,98.4 M138.1,87.7c9.2,15.9-12.8,28.5-0.7,49.4c4.6,8.1,13.1,12.6,21.8,12.6
				c4.3,0,8.6-1.1,12.5-3.4c12-6.9,16.1-22.3,9.2-34.3C168.8,91.1,147.3,103.5,138.1,87.7L138.1,87.7z"/>
		</g>
		<g id="XMLID_859_">
			<path id="XMLID_232_" class="st3" d="M124.3,182.6c-4,0-8-1.1-11.5-3.1c-10.3-6-11.8-14.6-13.2-22.9c-0.8-4.9-1.7-10.2-4.4-14.4
				c0.4,0,0.7-0.2,1.1-0.2c0,0,0,0,0,0c4.6,0,8.8-1.3,13.3-2.9c4.5-1.6,9.1-3.2,14.2-3.2c4.1,0,8.1,1.2,12.2,3.5
				c5.3,3.1,9.2,8.1,10.8,14.1c1.6,6,0.8,12.2-2.3,17.5C140.2,178.1,132.5,182.6,124.3,182.6z"/>
			<path id="XMLID_229_" class="st1" d="M123.7,138c3.8,0,7.4,1.1,11.2,3.2c4.9,2.8,8.4,7.4,9.8,12.8c1.5,5.4,0.7,11.1-2.1,16
				c-3.8,6.5-10.8,10.6-18.3,10.6c-3.7,0-7.3-1-10.5-2.8c-9.5-5.5-10.9-13.3-12.3-21.5c-0.7-3.9-1.4-8.1-3.1-11.9
				c4.1-0.4,8-1.8,11.8-3.2C114.7,139.5,119,138,123.7,138 M123.7,134c-10.3,0-18.7,6.5-27.5,6.5c-2.8,0-5.6-0.6-8.5-2.3
				c15.9,9.2,3.2,31.1,24.1,43.1c4,2.3,8.3,3.4,12.5,3.4c8.7,0,17.1-4.5,21.8-12.6c6.9-12,2.8-27.3-9.2-34.3
				C132,135,127.7,134,123.7,134L123.7,134z"/>
		</g>
		<g id="XMLID_858_">
			<path id="XMLID_227_" class="st3" d="M124,278c-5.1,0-9.8-1.6-14.4-3.3c-4.6-1.7-8.9-3.2-13.5-3.2c-0.3,0-0.7,0-1,0.1
				c2.7-4.2,3.6-9.1,4.5-14c1.5-8.2,3-16.8,13.3-22.7c3.5-2,7.5-3.1,11.5-3.1c8.2,0,15.9,4.4,20,11.6c3.1,5.3,3.9,11.6,2.3,17.5
				s-5.4,10.8-10.8,13.9C132,277,128.1,278,124,278C124,278,124,278,124,278z"/>
			<path id="XMLID_224_" class="st1" d="M124,230v3.8c8,0,14.8,4,18.5,10.6c2.8,4.9,3.7,10.6,2.2,16c-1.5,5.4-4.9,10-9.8,12.8
				c-3.7,2.1-7.3,3.2-11,3.2c-4.7,0-9.1-1.6-13.7-3.3c-3.8-1.4-7.7-2.9-11.9-3.3c1.7-3.8,2.5-7.9,3.2-11.8
				c1.5-8.1,2.8-15.8,12.4-21.4c3.2-1.9,6.6-2.8,10.3-2.8l-0.2-4 M124.5,229.8c-4.3,0-8.6,1.1-12.5,3.4c-20.9,12-8.4,33.6-24.3,42.8
				c2.9-1.7,5.7-2.3,8.4-2.3c8.9,0,17.4,6.7,27.9,6.7c4,0,8.3-1,13-3.7c12-6.9,16.1-22.3,9.2-34.3
				C141.6,234.3,133.1,229.8,124.5,229.8L124.5,229.8z"/>
		</g>
		<g id="XMLID_857_">
			<path id="XMLID_222_" class="st3" d="M142.4,318.9c0.3-5-1.4-9.7-3.1-14.4c-2.8-7.9-5.8-16,0.2-26.4c4.1-7.1,11.8-11.6,20-11.6
				c4,0,8,1.1,11.5,3.1c5.3,3.1,9.2,8.1,10.8,14c1.6,6,0.8,12.2-2.3,17.5c-6,10.3-14.6,11.8-22.9,13.2
				C151.7,315.3,146.6,316.2,142.4,318.9z"/>
			<path id="XMLID_219_" class="st1" d="M160,265v3.6c3,0,7.1,1,10.3,2.8c4.9,2.8,8.2,7.4,9.7,12.8c1.5,5.4,0.6,11.1-2.2,16
				c-5.5,9.5-13.3,10.9-21.5,12.3c-3.9,0.7-8.1,1.4-11.9,3.1c-0.4-4.2-1.8-8.1-3.2-11.8c-2.8-7.8-5.2-15.1,0.3-24.7
				c3.8-6.5,10.5-10.6,18.5-10.6V265 M159.5,264.6c-8.7,0-17.1,4.5-21.8,12.6c-12,20.9,9.5,33.3,0.4,49.2
				c9.2-15.9,31.1-3.2,43.1-24.1c6.9-12,2.8-27.3-9.2-34.3C168.1,265.7,163.8,264.6,159.5,264.6L159.5,264.6z"/>
		</g>
		<g id="XMLID_856_">
			<path id="XMLID_217_" class="st3" d="M271.6,318.9c-4.2-2.7-9.2-3.6-14-4.5c-8.2-1.5-16.8-3-22.7-13.3c-6.4-11-2.6-25.2,8.5-31.5
				c3.5-2,7.5-3.1,11.5-3.1c8.2,0,15.9,4.4,20,11.5c6,10.3,2.9,18.5,0,26.5C273.1,309.1,271.4,313.9,271.6,318.9z"/>
			<path id="XMLID_214_" class="st1" d="M255,264v4.4c7,0,14.5,4,18.2,10.6c5.5,9.5,2.7,16.9-0.2,24.8c-1.4,3.7-2.9,7.7-3.3,11.9
				c-3.8-1.7-7.9-2.5-11.8-3.2c-8.1-1.5-15.9-2.8-21.4-12.4c-2.8-4.9-3.6-10.6-2.1-16s4.9-10,9.8-12.8c3.2-1.9,6.9-2.8,10.6-2.8
				l0.1-4 M254.8,264.4c-4.3,0-8.6,1.1-12.5,3.4c-12,6.9-16.1,22.3-9.2,34.3c12,20.9,33.6,8.4,42.8,24.3
				c-9.2-15.9,12.8-28.5,0.7-49.4C271.9,268.9,263.5,264.4,254.8,264.4L254.8,264.4z"/>
		</g>
		<g id="XMLID_855_">
			<path id="XMLID_212_" class="st3" d="M290.3,278c-4.1,0-8.1-1.1-12.2-3.5c-5.3-3.1-9.2-8.1-10.8-14s-0.8-12.2,2.3-17.5
				c4.1-7.1,11.8-11.6,20-11.6c4,0,8,1.1,11.5,3.1c10.3,6,11.8,14.6,13.2,22.9c0.8,4.9,1.7,9.9,4.4,14.2c-0.4,0-0.7,0-1.1,0
				c-4.6,0-8.8,1.5-13.3,3.1C300,276.3,295.4,278,290.3,278C290.3,278,290.3,278,290.3,278z"/>
			<path id="XMLID_209_" class="st1" d="M289.7,233.4c3.7,0,7.3,1,10.5,2.8c9.5,5.5,10.9,13.3,12.3,21.5c0.7,3.9,1.4,8.1,3.1,11.9
				c-4.1,0.4-8,1.8-11.8,3.2c-4.5,1.6-8.8,3.2-13.5,3.2c-3.8,0-7.4-1.1-11.2-3.2c-4.9-2.8-8.4-7.4-9.8-12.8
				c-1.5-5.4-0.7-11.1,2.1-16C275.2,237.5,282.2,233.4,289.7,233.4 M289.7,229.4c-8.7,0-17.1,4.5-21.8,12.6
				c-6.9,12-2.8,27.3,9.2,34.3c4.8,2.8,9.1,3.8,13.2,3.8c10.3,0,18.7-6.5,27.5-6.5c2.8,0,5.6,0.6,8.5,2.3
				c-15.9-9.2-3.2-31.1-24.1-43.1C298.3,230.5,294,229.4,289.7,229.4L289.7,229.4z"/>
		</g>
		<g id="XMLID_854_">
			<path id="XMLID_207_" class="st3" d="M302.4,229.9c-12.7,0-23.1-10.4-23.1-23.1s10.4-23.1,23.1-23.1c11.9,0,17.5,6.7,22.9,13.2
				c3.2,3.8,6.4,7.8,10.9,10.1c-4.5,2.3-7.7,6.1-10.9,9.9C319.9,223.3,314.3,229.9,302.4,229.9z"/>
			<path id="XMLID_204_" class="st1" d="M302.4,185.7c11,0,16,6.1,21.4,12.5c2.5,3,5.2,6.3,8.6,8.8c-3.4,2.4-6.1,5.6-8.6,8.6
				c-5.3,6.3-10.4,12.3-21.4,12.3c-11.6,0-21.1-9.5-21.1-21.1S290.7,185.7,302.4,185.7 M302.4,181.7c-13.9,0-25.1,11.2-25.1,25.1
				s11.2,25.1,25.1,25.1c24.1,0,24.1-24.9,42.4-24.9C326.5,207,326.5,181.7,302.4,181.7L302.4,181.7z"/>
		</g>
		<g id="XMLID_853_">
			<path id="XMLID_202_" class="st3" d="M289.5,182.2c-8.2,0-15.9-4.4-20-11.6c-6.4-11-2.6-25.2,8.5-31.5c4-2.3,8-3.4,12-3.4
				c5.1,0,9.8,1.8,14.4,3.4c4.6,1.7,8.9,3.3,13.5,3.3c0.3,0,0.7,0,1,0c-2.7,4.2-3.6,9.2-4.5,14c-1.5,8.2-3,16.8-13.3,22.7
				C297.5,181.2,293.6,182.2,289.5,182.2z"/>
			<path id="XMLID_199_" class="st1" d="M290,137.7c4.7,0,9.1,1.6,13.7,3.3c3.8,1.4,7.7,2.9,11.9,3.3c-1.7,3.8-2.5,7.9-3.2,11.8
				c-1.5,8.1-2.8,15.8-12.4,21.4c-3.2,1.9-6.8,2.8-10.5,2.8c-7.5,0-14.5-4-18.3-10.6c-5.8-10.1-2.4-23,7.7-28.8
				C282.7,138.7,286.3,137.7,290,137.7 M290,133.7c-4,0-8.3,1-13,3.7c-12,6.9-16.1,22.3-9.2,34.3c4.6,8.1,13.1,12.6,21.8,12.6
				c4.3,0,8.6-1.1,12.5-3.4c20.9-12,8.4-33.6,24.3-42.8c-2.9,1.7-5.7,2.3-8.4,2.3C309,140.4,300.5,133.7,290,133.7L290,133.7z"/>
		</g>
		<g id="XMLID_852_">
			<path id="XMLID_197_" class="st3" d="M254.5,147.4c-4,0-8-1.1-11.5-3.1c-5.3-3.1-9.2-8.1-10.8-14c-1.6-6-0.8-12.2,2.3-17.5
				c6-10.3,14.6-11.8,22.9-13.2c4.9-0.8,9.9-1.7,14.2-4.4c-0.3,5,1.4,9.7,3.1,14.4c2.8,7.9,5.8,16-0.2,26.4
				C270.4,143,262.7,147.4,254.5,147.4z"/>
			<path id="XMLID_194_" class="st1" d="M269.7,98.4c0.4,4.2,1.8,8.1,3.1,11.8c2.8,7.8,5.5,15.1,0,24.7
				c-3.8,6.5-10.8,10.6-18.3,10.6c-3.7,0-7.3-1-10.5-2.8c-4.9-2.8-8.4-7.4-9.8-12.8c-1.5-5.4-0.7-11.1,2.1-16
				c5.5-9.5,13.3-10.9,21.5-12.3C261.7,100.8,265.8,100.1,269.7,98.4 M275.9,87.7c-9.2,15.9-31.1,3.2-43.1,24.1
				c-6.9,12-2.8,27.3,9.2,34.3c4,2.3,8.3,3.4,12.5,3.4c8.7,0,17.1-4.5,21.8-12.6C288.3,116,266.7,103.5,275.9,87.7L275.9,87.7z"/>
		</g>
	</g>
	<g id="XMLID_835_">
		<g id="XMLID_850_">
			<path id="XMLID_192_" class="st0" d="M132.3,245.3c-6,0-10.5-3.1-14.8-6.2c-3.1-2.2-6.3-4.4-10-5.4c2.7-2.7,4.3-6.2,6-9.6
				c3-6.3,5.7-12.2,14.8-14.7c1.5-0.4,3.1-0.6,4.7-0.6c8.2,0,15.4,5.5,17.5,13.5c2.6,9.7-3.2,19.7-12.8,22.2
				C135.8,245,134,245.3,132.3,245.3z"/>
			<path id="XMLID_189_" class="st1" d="M133,210.8L133,210.8c7.3,0,13.7,4.9,15.6,12c1.1,4.2,0.5,8.5-1.6,12.3
				c-2.2,3.7-5.6,6.4-9.8,7.5c-1.7,0.5-3.3,0.7-4.9,0.7c-5.4,0-9.4-2.8-13.6-5.8c-2.4-1.7-4.9-3.5-7.7-4.7c1.8-2.4,3.1-5.2,4.3-7.8
				c2.9-6.1,5.3-11.4,13.5-13.6C130.2,211,131.6,210.8,133,210.8 M133,206.8c-1.7,0-3.5,0.2-5.2,0.7c-18.7,5-13.5,24.3-27.7,28.1
				c1.3-0.3,2.5-0.5,3.6-0.5c10.2,0,16,12.1,28.6,12.1c1.8,0,3.8-0.3,5.9-0.8c10.8-2.9,17.1-13.9,14.3-24.7
				C150.1,212.8,141.9,206.8,133,206.8L133,206.8z"/>
		</g>
		<g id="XMLID_848_">
			<path id="XMLID_187_" class="st0" d="M233.7,306.5c-2.7-2.7-6.2-4.3-9.6-5.9c-6.3-3-12.2-5.7-14.7-14.8
				c-2.6-9.7,3.2-19.7,12.8-22.2c1.5-0.4,3.1-0.6,4.7-0.6c8.2,0,15.4,5.5,17.5,13.5c2.4,9.1-1.4,14.5-5.4,20.2
				C236.9,299.6,234.7,302.8,233.7,306.5z"/>
			<path id="XMLID_184_" class="st1" d="M227,264.8L227,264.8c7.3,0,13.7,4.9,15.6,12c2.2,8.2-1.2,13-5.1,18.5
				c-1.7,2.4-3.5,4.9-4.7,7.7c-2.5-1.8-5.2-3.1-7.8-4.3c-6.1-2.9-11.4-5.3-13.6-13.5c-1.1-4.2-0.5-8.5,1.6-12.3
				c2.2-3.7,5.6-6.4,9.8-7.5C224.2,265,225.6,264.8,227,264.8 M227,260.8c-1.7,0-3.5,0.2-5.2,0.7c-10.8,2.9-17.1,13.9-14.3,24.7
				c5,18.7,24.3,13.5,28.1,27.7c-3.8-14.2,15.8-19.5,10.8-38.2C244.1,266.8,235.9,260.8,227,260.8L227,260.8z"/>
		</g>
		<g id="XMLID_847_">
			<path id="XMLID_182_" class="st0" d="M187,151.2c-8.2,0-15.4-5.5-17.5-13.5c-2.4-9.1,1.4-14.5,5.4-20.2c2.2-3.1,4.4-6.3,5.4-10
				c2.7,2.7,6.1,4.3,9.6,5.9c6.3,3,12.2,5.7,14.7,14.8c2.6,9.7-3.2,19.7-12.8,22.2C190.2,151,188.6,151.2,187,151.2z"/>
			<path id="XMLID_179_" class="st1" d="M181.2,110.9c2.5,1.8,5.2,3.1,7.8,4.3c6.1,2.9,11.4,5.3,13.6,13.5c1.1,4.2,0.5,8.5-1.6,12.3
				c-2.2,3.7-5.6,6.4-9.8,7.5c-1.4,0.4-2.8,0.6-4.2,0.6c-7.3,0-13.7-4.9-15.6-12c-2.2-8.2,1.2-13,5.1-18.5
				C178.2,116.3,180,113.8,181.2,110.9 M178.3,100.1c3.8,14.2-15.8,19.5-10.8,38.2c2.4,9,10.6,15,19.5,15c1.7,0,3.5-0.2,5.2-0.7
				c10.8-2.9,17.1-13.9,14.3-24.7C201.5,109.1,182.2,114.3,178.3,100.1L178.3,100.1z"/>
		</g>
		<g id="XMLID_846_">
			<path id="XMLID_177_" class="st0" d="M152.7,171.1c-4.9,0-9.4-1.9-12.8-5.3c-6.7-6.7-6-13.2-5.4-20.2c0.4-3.8,0.7-7.6-0.3-11.3
				c2,0.6,4,0.7,5.7,0.7c0,0,0,0,0,0c1.8,0,3.7-0.2,5.6-0.4c1.9-0.2,3.8-0.4,5.7-0.4c4.2,0,9.3,0.7,14.4,5.8
				c7.1,7.1,7.1,18.6,0,25.7C162.1,169.2,157.5,171.1,152.7,171.1z"/>
			<path id="XMLID_174_" class="st1" d="M151.1,136.2c4,0,8.4,0.6,13,5.3c6.3,6.3,6.3,16.6,0,22.9c-3.1,3.1-7.1,4.7-11.4,4.7
				c-4.3,0-8.4-1.7-11.4-4.7c-6-6-5.4-11.8-4.8-18.6c0.3-2.9,0.6-6,0.2-9c1.2,0.1,2.2,0.2,3.2,0.2c1.9,0,3.9-0.2,5.7-0.3
				C147.4,136.4,149.3,136.2,151.1,136.2 M128.7,128.7c10.4,10.4-4,24.8,9.7,38.5c3.9,3.9,9.1,5.9,14.3,5.9c5.2,0,10.3-2,14.3-5.9
				c7.9-7.9,7.9-20.6,0-28.5c-5.3-5.3-10.6-6.4-15.8-6.4c-3.9,0-7.7,0.6-11.3,0.6C135.8,132.9,132.1,132.1,128.7,128.7L128.7,128.7z
				"/>
		</g>
		<g id="XMLID_845_">
			<path id="XMLID_172_" class="st0" d="M132.9,205c-1.6,0-3.2,0-4.7-0.4c-9.1-2.4-11.9-8.3-14.8-14.7c-1.6-3.5-3.2-6.9-5.9-9.6
				c3.7-1,6.9-3.1,9.9-5.3c4.3-3,8.7-6,14.7-6c1.7,0,3.6,0.3,5.5,0.8c9.7,2.6,15.4,12.3,12.8,22C148.3,199.7,141.1,205,132.9,205
				C132.9,205,132.9,205,132.9,205z"/>
			<path id="XMLID_169_" class="st1" d="M132.1,171c1.6,0,3.2,0.2,5,0.7c4.2,1.1,7.7,3.8,9.8,7.5c2.2,3.7,2.7,8.1,1.6,12.3
				c-1.9,7.1-8.3,12-15.6,12c-1.4,0-2.8-0.2-4.2-0.6c-8.2-2.2-10.6-7.5-13.5-13.7c-1.2-2.6-2.5-5.4-4.3-7.9c2.8-1.2,5.2-2.9,7.7-4.6
				C122.8,173.8,126.8,171,132.1,171 M132.1,167c-12.6,0-18.3,11.8-28.4,11.8c-1.2,0-2.4-0.2-3.7-0.5c14.2,3.8,8.9,23.4,27.7,28.5
				c1.7,0.5,3.5,0.7,5.2,0.7c8.9,0,17.1-5.9,19.5-15c2.9-10.8-3.5-21.8-14.3-24.7C136,167.3,134,167,132.1,167L132.1,167z"/>
		</g>
		<g id="XMLID_844_">
			<path id="XMLID_167_" class="st0" d="M151.5,279.9c-2,0-4-0.2-6-0.4c-1.9-0.2-3.9-0.4-5.9-0.4c-1.6,0-3.5,0.1-5.5,0.6
				c1-3.7,0.7-7.5,0.4-11.3c-0.6-6.9-1.1-13.5,5.5-20.1c3.4-3.4,8-5.3,12.8-5.3c4.9,0,9.4,1.9,12.8,5.3c7.1,7.1,7.1,18.6,0,25.7
				C160.7,279.2,155.7,279.9,151.5,279.9z"/>
			<path id="XMLID_164_" class="st1" d="M152.9,245.1c4.3,0,8.4,1.7,11.4,4.7c6.3,6.3,6.3,16.6,0,22.9c-4.6,4.6-9,5.2-12.8,5.2
				c-1.9,0-3.9-0.2-5.8-0.4c-2-0.2-4-0.4-6.1-0.4c-0.9,0-1.9,0-3,0.2c0.4-3,0.1-6.1-0.1-8.9c-0.6-6.7-1.1-12.5,4.9-18.5
				C144.5,246.8,148.6,245.1,152.9,245.1 M152.9,241.1c-5.2,0-10.3,2-14.3,5.9c-13.7,13.7,0.5,27.8-9.9,38.2c3.3-3.3,7-4.1,11-4.1
				c3.8,0,7.8,0.7,11.9,0.7c5.1,0,10.4-1.2,15.6-6.4c7.9-7.9,7.9-20.6,0-28.5C163.2,243.1,158.1,241.1,152.9,241.1L152.9,241.1z"/>
		</g>
		<g id="XMLID_842_">
			<path id="XMLID_162_" class="st0" d="M180.4,306.5c-1-3.7-3.2-6.8-5.3-9.9c-4-5.7-7.7-11.1-5.3-20.2c2.1-7.9,9.3-13.5,17.5-13.5
				c1.6,0,3.2,0.2,4.7,0.6c9.7,2.6,15.4,12.6,12.8,22.2c-2.4,9.1-8.4,11.9-14.8,14.8C186.6,302.2,183.1,303.8,180.4,306.5z"/>
			<path id="XMLID_159_" class="st1" d="M187.3,264.9L187.3,264.9c1.4,0,2.8,0.2,4.2,0.6c4.2,1.1,7.7,3.8,9.8,7.5
				c2.2,3.7,2.7,8.1,1.6,12.3c-2.2,8.2-7.5,10.6-13.7,13.5c-2.6,1.2-5.4,2.5-7.9,4.3c-1.2-2.8-3-5.3-4.6-7.7
				c-3.9-5.5-7.2-10.3-5-18.5C173.6,269.8,180,264.9,187.3,264.9 M187.3,260.9c-8.9,0-17.1,5.9-19.5,15c-5,18.7,14.3,23.9,10.5,38.1
				c3.8-14.2,23.4-8.9,28.5-27.7c2.9-10.8-3.5-21.8-14.3-24.7C190.8,261.1,189,260.9,187.3,260.9L187.3,260.9z"/>
		</g>
		<g id="XMLID_841_">
			<path id="XMLID_157_" class="st0" d="M279.8,279.8c-2-0.6-4-0.7-5.7-0.7c-1.8,0-3.7,0.2-5.6,0.3c-1.9,0.2-3.8,0.3-5.7,0.3
				c-4.2,0-9.3-0.7-14.4-5.8c-7.1-7.1-7.1-18.6,0-25.7c3.4-3.4,8-5.3,12.8-5.3l0,0c4.9,0,9.4,1.9,12.8,5.3c6.7,6.7,6,13.2,5.4,20.2
				C279.2,272.3,278.8,276.1,279.8,279.8z"/>
			<path id="XMLID_154_" class="st1" d="M261.3,244.9c4.3,0,8.4,1.7,11.4,4.7c6,6,5.4,11.8,4.8,18.6c-0.3,2.9-0.6,6-0.2,9
				c-1.2-0.1-2.2-0.2-3.2-0.2c-1.9,0-3.9,0.2-5.7,0.3c-1.8,0.2-3.7,0.3-5.5,0.3c-4,0-8.4-0.6-13-5.3c-3.1-3.1-4.7-7.1-4.7-11.4
				c0-4.3,1.7-8.4,4.7-11.4S257,244.9,261.3,244.9 M261.3,240.9c-5.2,0-10.3,2-14.3,5.9c-7.9,7.9-7.9,20.6,0,28.5
				c5.3,5.3,10.6,6.4,15.8,6.4c3.9,0,7.7-0.6,11.3-0.6c4,0,7.8,0.8,11.1,4.2c-10.4-10.4,4-24.8-9.7-38.5
				C271.6,242.9,266.5,240.9,261.3,240.9L261.3,240.9z"/>
		</g>
		<g id="XMLID_840_">
			<path id="XMLID_152_" class="st0" d="M281.9,245c-1.7,0-3.6-0.3-5.5-0.8c-4.7-1.3-8.6-4.3-11-8.5c-2.4-4.2-3.1-9.1-1.8-13.8
				c2.1-7.9,9.3-13.5,17.5-13.5c1.6,0,3.2,0.2,4.7,0.6c9.1,2.4,11.9,8.4,14.8,14.8c1.6,3.5,3.2,7,5.9,9.7c-3.7,1-6.9,3.2-9.9,5.3
				C292.3,241.9,287.9,245,281.9,245z"/>
			<path id="XMLID_149_" class="st1" d="M281.1,210.5c1.4,0,2.8,0.2,4.2,0.6c8.2,2.2,10.6,7.5,13.5,13.7c1.2,2.6,2.5,5.4,4.3,7.9
				c-2.8,1.2-5.2,2.9-7.7,4.6c-4.2,2.9-8.2,5.7-13.5,5.7c-1.6,0-3.2-0.2-5-0.7c-8.6-2.3-13.7-11.2-11.4-19.8
				C267.4,215.4,273.8,210.5,281.1,210.5 M281.1,206.5c-8.9,0-17.1,5.9-19.5,15c-2.9,10.8,3.5,21.8,14.3,24.7c2.2,0.6,4.2,0.8,6,0.8
				c12.6,0,18.3-11.8,28.4-11.8c1.2,0,2.4,0.2,3.7,0.5c-14.2-3.8-8.9-23.4-27.7-28.5C284.5,206.7,282.8,206.5,281.1,206.5
				L281.1,206.5z"/>
		</g>
		<g id="XMLID_839_">
			<path id="XMLID_147_" class="st0" d="M281,205.2c-8.2,0-15.4-5.5-17.5-13.5c-2.6-9.7,3.2-19.7,12.8-22.2c1.9-0.5,3.7-0.8,5.4-0.8
				c6,0,10.5,3.1,14.8,6.2c3.1,2.2,6.3,4.4,10,5.4c-2.7,2.7-4.3,6.2-6,9.6c-3,6.3-5.7,12.2-14.8,14.7
				C284.2,205,282.6,205.2,281,205.2z"/>
			<path id="XMLID_144_" class="st1" d="M281.7,170.7c5.4,0,9.4,2.8,13.6,5.8c2.4,1.7,4.9,3.5,7.7,4.7c-1.8,2.4-3.1,5.2-4.3,7.8
				c-2.9,6.1-5.3,11.4-13.5,13.6c-1.4,0.4-2.8,0.6-4.2,0.6c-7.3,0-13.7-4.9-15.6-12c-2.3-8.6,2.8-17.5,11.4-19.8
				C278.5,170.9,280.2,170.7,281.7,170.7 M281.7,166.7c-1.8,0-3.8,0.3-5.9,0.8c-10.8,2.9-17.1,13.9-14.3,24.7c2.4,9,10.6,15,19.5,15
				c1.7,0,3.5-0.2,5.2-0.7c18.7-5,13.5-24.3,27.7-28.1c-1.3,0.3-2.5,0.5-3.6,0.5C300.2,178.8,294.4,166.7,281.7,166.7L281.7,166.7z"
				/>
		</g>
		<g id="XMLID_838_">
			<path id="XMLID_142_" class="st0" d="M261.1,170.9c-4.9,0-9.4-1.9-12.8-5.3c-7.1-7.1-7.1-18.6,0-25.7c5.1-5.1,10-5.8,14.2-5.8
				c2,0,4,0.2,6,0.4c1.9,0.2,3.9,0.4,5.9,0.4c1.6,0,3.5-0.1,5.5-0.6c-1,3.7-0.7,7.5-0.4,11.3c0.6,6.9,1.1,13.5-5.5,20.1
				C270.5,169,265.9,170.9,261.1,170.9z"/>
			<path id="XMLID_139_" class="st1" d="M262.5,136.1c1.9,0,3.9,0.2,5.8,0.4c2,0.2,4,0.4,6.1,0.4c0.9,0,1.9,0,3-0.2
				c-0.4,3-0.1,6.1,0.1,8.9c0.6,6.7,1.1,12.5-4.9,18.5c-3.1,3.1-7.1,4.7-11.4,4.7c-4.3,0-8.4-1.7-11.4-4.7c-6.3-6.3-6.3-16.6,0-22.9
				C254.2,136.7,258.7,136.1,262.5,136.1 M285.3,128.7c-3.3,3.3-7,4.1-11,4.1c-3.8,0-7.8-0.7-11.9-0.7c-5.1,0-10.4,1.2-15.6,6.4
				c-7.9,7.9-7.9,20.6,0,28.5c3.9,3.9,9.1,5.9,14.3,5.9c5.2,0,10.3-2,14.3-5.9C289,153.3,274.9,139.1,285.3,128.7L285.3,128.7z"/>
		</g>
		<g id="XMLID_836_">
			<path id="XMLID_137_" class="st0" d="M226.7,151.1c-1.6,0-3.2-0.2-4.7-0.6c-9.7-2.6-15.4-12.6-12.8-22.2
				c2.4-9.1,8.4-11.9,14.8-14.8c3.5-1.6,7-3.2,9.7-5.9c1,3.7,3.2,6.8,5.3,9.9c4,5.7,7.7,11.1,5.3,20.2
				C242.1,145.6,234.9,151.1,226.7,151.1z"/>
			<path id="XMLID_134_" class="st1" d="M232.7,110.9c1.2,2.8,3,5.3,4.6,7.7c3.9,5.5,7.2,10.3,5,18.5c-1.9,7.1-8.3,12-15.6,12
				c-1.4,0-2.8-0.2-4.2-0.6c-8.6-2.3-13.7-11.2-11.4-19.8c2.2-8.2,7.5-10.6,13.7-13.5C227.4,114,230.2,112.8,232.7,110.9
				 M235.7,100.1c-3.8,14.2-23.4,8.9-28.5,27.7c-2.9,10.8,3.5,21.8,14.3,24.7c1.7,0.5,3.5,0.7,5.2,0.7c8.9,0,17.1-5.9,19.5-15
				C251.2,119.4,231.8,114.3,235.7,100.1L235.7,100.1z"/>
		</g>
	</g>
	<g id="XMLID_820_">
		<g id="XMLID_834_">
			<path id="XMLID_132_" class="st2" d="M152.3,253c-3.2,0-6.3-1-9.3-2.1c-2.8-1-5.6-2-8.6-2.1c1.4-2.6,1.9-5.5,2.4-8.4
				c1-5.5,1.9-10.7,8.5-14.5c2.2-1.3,4.7-1.9,7.3-1.9c5.2,0,10,2.8,12.6,7.3c4,6.9,1.6,15.7-5.3,19.7
				C157.4,252.4,154.9,253,152.3,253C152.3,253,152.3,253,152.3,253z"/>
			<path id="XMLID_129_" class="st1" d="M152.6,226L152.6,226c4.5,0,8.6,2.4,10.9,6.3c3.5,6,1.4,13.7-4.6,17.1
				c-2.2,1.3-4.4,1.9-6.6,1.9c-2.9,0-5.6-1-8.6-2.1c-2.1-0.8-4.2-1.5-6.4-2c0.7-2.1,1.1-4.3,1.5-6.4c0.9-5.3,1.8-9.8,7.5-13.1
				C148.3,226.6,150.4,226,152.6,226 M152.6,222c-2.8,0-5.6,0.7-8.3,2.2c-13.8,7.9-5.5,22.1-16,28.2c1.9-1.1,3.7-1.5,5.5-1.5
				c5.9,0,11.5,4.4,18.4,4.4c2.6,0,5.5-0.7,8.6-2.4c7.9-4.6,10.6-14.7,6.1-22.6C163.9,225,158.3,222,152.6,222L152.6,222z"/>
		</g>
		<g id="XMLID_833_">
			<path id="XMLID_127_" class="st2" d="M248.9,279.5c-2.6-1.4-5.5-1.9-8.4-2.4c-5.5-1-10.7-1.9-14.5-8.5c-4-6.9-1.6-15.8,5.3-19.9
				c2.2-1.3,4.7-2,7.3-2c5.2,0,10,2.8,12.6,7.3c3.8,6.5,1.9,11.5,0,16.9C250.1,273.7,249,276.6,248.9,279.5z"/>
			<path id="XMLID_124_" class="st1" d="M238.5,248.8L238.5,248.8c4.5,0,8.6,2.4,10.9,6.3c3.3,5.7,1.7,10.1-0.2,15.2
				c-0.7,2-1.5,4.1-2,6.4c-2.1-0.7-4.3-1.1-6.4-1.5c-5.3-0.9-9.8-1.8-13.1-7.5c-1.7-2.9-2.1-6.3-1.3-9.5c0.9-3.2,2.9-5.9,5.8-7.6
				C234.2,249.4,236.3,248.8,238.5,248.8 M238.5,244.8c-2.8,0-5.6,0.7-8.3,2.2c-7.9,4.6-10.6,14.7-6.1,22.6
				c7.9,13.8,22.1,5.5,28.2,16c-6-10.4,8.4-18.8,0.5-32.5C249.8,247.8,244.2,244.8,238.5,244.8L238.5,244.8z"/>
		</g>
		<g id="XMLID_832_">
			<path id="XMLID_122_" class="st2" d="M175.5,167.2c-5.2,0-10-2.8-12.6-7.3c-3.8-6.5-1.9-11.5,0-16.9c1-2.8,2.1-5.6,2.2-8.6
				c2.6,1.4,5.5,1.9,8.4,2.4c5.5,1,10.7,1.9,14.5,8.5c4,6.9,1.6,15.8-5.3,19.9C180.5,166.5,178,167.2,175.5,167.2z"/>
			<path id="XMLID_119_" class="st1" d="M166.8,137.4c2.1,0.7,4.3,1.1,6.4,1.5c5.3,0.9,9.8,1.8,13.1,7.5c3.5,6,1.4,13.7-4.6,17.1
				c-1.9,1.1-4.1,1.7-6.3,1.7c-4.5,0-8.6-2.4-10.9-6.3c-3.3-5.7-1.7-10.1,0.2-15.2C165.5,141.7,166.3,139.6,166.8,137.4
				 M161.6,128.4c6,10.4-8.4,18.8-0.5,32.5c3.1,5.3,8.6,8.3,14.3,8.3c2.8,0,5.6-0.7,8.3-2.2c7.9-4.6,10.6-14.7,6.1-22.6
				C181.8,130.6,167.6,138.8,161.6,128.4L161.6,128.4z"/>
		</g>
		<g id="XMLID_830_">
			<path id="XMLID_117_" class="st2" d="M152.5,190.2c-2.5,0-5-0.7-7.3-1.9c-6.5-3.8-7.4-9-8.4-14.6c-0.5-2.9-1-5.9-2.4-8.5
				c3-0.1,5.8-1.1,8.5-2.1c2.9-1.1,5.9-2.1,9.1-2.1c2.6,0,5.1,0.7,7.7,2.2c3.4,1.9,5.8,5.1,6.8,8.8c1,3.8,0.5,7.7-1.5,11
				C162.5,187.4,157.7,190.2,152.5,190.2z"/>
			<path id="XMLID_114_" class="st1" d="M152.1,162.9c2.2,0,4.4,0.6,6.7,1.9c2.9,1.7,5,4.4,5.8,7.6c0.9,3.2,0.4,6.6-1.3,9.5
				c-2.2,3.9-6.4,6.3-10.9,6.3c-2.2,0-4.3-0.6-6.3-1.7c-5.7-3.3-6.5-7.9-7.4-13.2c-0.4-2.1-0.7-4.4-1.5-6.5c2.2-0.4,4.3-1.2,6.3-1.9
				C146.5,163.9,149.2,162.9,152.1,162.9 M152.1,158.9c-6.8,0-12.3,4.3-18.1,4.3c-1.8,0-3.7-0.4-5.6-1.5c10.4,6,2.1,20.5,15.9,28.4
				c2.6,1.5,5.4,2.2,8.3,2.2c5.7,0,11.3-3,14.3-8.3c4.6-7.9,1.9-18-6.1-22.6C157.6,159.5,154.7,158.9,152.1,158.9L152.1,158.9z"/>
		</g>
		<g id="XMLID_829_">
			<path id="XMLID_112_" class="st2" d="M144.1,221.7c-7.5,0-11-4.1-14.6-8.5c-1.9-2.3-3.8-4.6-6.3-6.2c2.5-1.6,4.4-3.8,6.3-6.1
				c3.6-4.3,7-8.3,14.6-8.3c8,0,14.5,6.5,14.5,14.5C158.7,215.1,152.2,221.7,144.1,221.7z"/>
			<path id="XMLID_109_" class="st1" d="M144.1,194.6c6.9,0,12.5,5.6,12.5,12.5c0,6.9-5.6,12.5-12.5,12.5c-6.6,0-9.6-3.6-13-7.7
				c-1.4-1.7-2.8-3.4-4.5-4.9c1.7-1.5,3.1-3.2,4.5-4.8C134.5,198.1,137.5,194.6,144.1,194.6 M144.1,190.6
				c-15.9,0-15.9,16.4-27.9,16.4c12.1,0,12.1,16.7,27.9,16.7c9.1,0,16.5-7.4,16.5-16.5C160.7,198,153.3,190.6,144.1,190.6
				L144.1,190.6z"/>
		</g>
		<g id="XMLID_828_">
			<path id="XMLID_107_" class="st2" d="M165.1,279.5c-0.1-2.9-1.1-5.7-2.1-8.5c-1.9-5.3-3.7-10.3,0.1-16.8
				c2.6-4.5,7.4-7.3,12.6-7.3c2.5,0,5,0.7,7.3,2c6.9,4,9.3,12.9,5.3,19.9c-3.8,6.5-9,7.4-14.6,8.4
				C170.7,277.7,167.8,278.2,165.1,279.5z"/>
			<path id="XMLID_104_" class="st1" d="M175.7,249L175.7,249c2.2,0,4.3,0.6,6.3,1.7c6,3.5,8,11.1,4.6,17.1
				c-3.3,5.7-7.9,6.5-13.2,7.4c-2.1,0.4-4.4,0.7-6.5,1.5c-0.4-2.2-1.2-4.3-1.9-6.3c-1.8-5-3.4-9.4-0.1-15.1
				C167.1,251.4,171.2,249,175.7,249 M175.7,245c-5.7,0-11.3,3-14.3,8.3c-7.9,13.8,6.3,22,0.2,32.4c6-10.4,20.5-2.1,28.4-15.9
				c4.6-7.9,1.9-18-6.1-22.6C181.4,245.7,178.5,245,175.7,245L175.7,245z"/>
		</g>
		<g id="XMLID_827_">
			<path id="XMLID_102_" class="st2" d="M207,290.7c-1.6-2.5-3.8-4.4-6.1-6.3c-4.3-3.6-8.3-7-8.3-14.6c0-8,6.5-14.5,14.5-14.5
				c8,0,14.5,6.5,14.5,14.5c0,7.5-4.1,11-8.5,14.6C210.9,286.3,208.6,288.2,207,290.7z"/>
			<path id="XMLID_99_" class="st1" d="M207.1,257.3c6.9,0,12.5,5.6,12.5,12.5c0,6.6-3.6,9.6-7.7,13c-1.7,1.4-3.4,2.8-4.9,4.5
				c-1.5-1.7-3.2-3.1-4.8-4.5c-4.1-3.5-7.6-6.4-7.6-13.1C194.6,262.9,200.2,257.3,207.1,257.3 M207.1,253.3
				c-9.1,0-16.5,7.4-16.5,16.5c0,15.9,16.4,15.9,16.4,27.9c0-12.1,16.7-12.1,16.7-27.9C223.7,260.7,216.3,253.3,207.1,253.3
				L207.1,253.3z"/>
		</g>
		<g id="XMLID_826_">
			<path id="XMLID_97_" class="st2" d="M261.9,253.1c-2.6,0-5.1-0.7-7.7-2.2c-6.9-4-9.3-12.9-5.3-19.9c2.6-4.5,7.4-7.3,12.6-7.3
				c2.5,0,5,0.7,7.3,2c6.5,3.8,7.4,9,8.4,14.6c0.5,2.9,1,5.9,2.4,8.5c-3,0.1-5.8,1.1-8.5,2.1C268.1,252,265.1,253.1,261.9,253.1
				L261.9,253.1z"/>
			<path id="XMLID_94_" class="st1" d="M261.5,225.8c2.2,0,4.3,0.6,6.3,1.7c5.7,3.3,6.5,7.9,7.4,13.2c0.4,2.1,0.7,4.4,1.5,6.5
				c-2.2,0.4-4.3,1.2-6.3,1.9c-2.9,1-5.6,2-8.4,2c-2.2,0-4.4-0.6-6.7-1.9c-2.9-1.7-5-4.4-5.8-7.6c-0.9-3.2-0.4-6.6,1.3-9.5
				C252.9,228.2,257,225.8,261.5,225.8 M261.5,221.8c-5.7,0-11.3,3-14.3,8.3c-4.6,7.9-1.9,18,6.1,22.6c3.2,1.8,6,2.5,8.7,2.5
				c6.8,0,12.3-4.3,18.1-4.3c1.8,0,3.7,0.4,5.6,1.5c-10.4-6-2.1-20.5-15.9-28.4C267.2,222.5,264.3,221.8,261.5,221.8L261.5,221.8z"
				/>
		</g>
		<g id="XMLID_824_">
			<path id="XMLID_92_" class="st2" d="M269.9,221.4c-8,0-14.5-6.5-14.5-14.5c0-8,6.5-14.5,14.5-14.5c7.5,0,11,4.1,14.6,8.5
				c1.9,2.3,3.8,4.6,6.3,6.2c-2.5,1.6-4.4,3.8-6.3,6.1C280.8,217.4,277.4,221.4,269.9,221.4z"/>
			<path id="XMLID_89_" class="st1" d="M269.9,194.3c6.6,0,9.6,3.6,13,7.7c1.4,1.7,2.8,3.4,4.5,4.9c-1.7,1.5-3.1,3.2-4.5,4.8
				c-3.5,4.1-6.4,7.6-13.1,7.6c-6.9,0-12.5-5.6-12.5-12.5C257.3,200,262.9,194.3,269.9,194.3 M269.9,190.3
				c-9.1,0-16.5,7.4-16.5,16.5c0,9.1,7.4,16.5,16.5,16.5c15.9,0,15.9-16.4,27.9-16.4C285.7,207,285.7,190.3,269.9,190.3L269.9,190.3
				z"/>
		</g>
		<g id="XMLID_823_">
			<path id="XMLID_87_" class="st2" d="M261.4,190c-5.2,0-10-2.8-12.6-7.3c-1.9-3.4-2.5-7.3-1.5-11c1-3.8,3.4-6.9,6.8-8.8
				c2.5-1.5,5-2.2,7.6-2.2c3.2,0,6.3,1.1,9.3,2.2c2.8,1,5.6,2.1,8.6,2.2c-1.4,2.6-1.9,5.5-2.4,8.4c-1,5.5-1.9,10.7-8.5,14.5
				C266.4,189.3,263.9,190,261.4,190z"/>
			<path id="XMLID_84_" class="st1" d="M261.7,162.7c2.9,0,5.6,1,8.6,2.1c2.1,0.8,4.2,1.5,6.4,2c-0.7,2.1-1.1,4.3-1.5,6.4
				c-0.9,5.3-1.8,9.8-7.5,13.1c-1.9,1.1-4.1,1.7-6.3,1.7c-4.5,0-8.6-2.4-10.9-6.3c-1.7-2.9-2.1-6.3-1.3-9.5c0.9-3.2,2.9-5.9,5.8-7.6
				C257.3,163.3,259.5,162.7,261.7,162.7 M261.7,158.7c-2.6,0-5.5,0.7-8.6,2.4c-7.9,4.6-10.6,14.7-6.1,22.6
				c3.1,5.3,8.6,8.3,14.3,8.3c2.8,0,5.6-0.7,8.3-2.2c13.8-7.9,5.5-22.1,16-28.2c-1.9,1.1-3.7,1.5-5.5,1.5
				C274.2,163.1,268.6,158.7,261.7,158.7L261.7,158.7z"/>
		</g>
		<g id="XMLID_822_">
			<path id="XMLID_82_" class="st2" d="M238.3,167c-2.5,0-5-0.7-7.3-2c-3.4-1.9-5.8-5.1-6.8-8.8c-1-3.8-0.5-7.7,1.5-11
				c3.8-6.5,9-7.4,14.6-8.4c2.9-0.5,5.9-1,8.5-2.4c0.1,2.9,1.1,5.7,2.1,8.5c1.9,5.3,3.7,10.3-0.1,16.8
				C248.3,164.3,243.5,167,238.3,167z"/>
			<path id="XMLID_79_" class="st1" d="M247.2,137.3c0.4,2.2,1.2,4.3,1.9,6.3c1.8,5,3.4,9.4,0.1,15.1c-2.2,3.9-6.4,6.3-10.9,6.3
				c-2.2,0-4.3-0.6-6.3-1.7c-2.9-1.7-5-4.4-5.8-7.6c-0.9-3.2-0.4-6.6,1.3-9.5c3.3-5.7,7.9-6.5,13.2-7.4
				C242.8,138.5,245,138.1,247.2,137.3 M252.4,128.4c-6,10.4-20.5,2.1-28.4,15.9c-4.6,7.9-1.9,18,6.1,22.6c2.6,1.5,5.4,2.2,8.3,2.2
				c5.7,0,11.3-3,14.3-8.3C260.6,147,246.4,138.8,252.4,128.4L252.4,128.4z"/>
		</g>
		<g id="XMLID_821_">
			<path id="XMLID_77_" class="st2" d="M206.9,158.7c-8,0-14.5-6.5-14.5-14.5c0-7.5,4.1-11,8.5-14.6c2.3-1.9,4.6-3.8,6.2-6.3
				c1.6,2.5,3.8,4.4,6.1,6.3c4.3,3.6,8.3,7,8.3,14.6C221.4,152.2,214.9,158.7,206.9,158.7z"/>
			<path id="XMLID_74_" class="st1" d="M207,126.6c1.5,1.7,3.2,3.1,4.8,4.5c4.1,3.5,7.6,6.4,7.6,13.1c0,6.9-5.6,12.5-12.5,12.5
				c-6.9,0-12.5-5.6-12.5-12.5c0-6.6,3.6-9.6,7.7-13C203.7,129.7,205.5,128.3,207,126.6 M207,116.2c0,12.1-16.7,12.1-16.7,27.9
				c0,9.1,7.4,16.5,16.5,16.5c9.1,0,16.5-7.4,16.5-16.5C223.4,128.3,207,128.3,207,116.2L207,116.2z"/>
		</g>
	</g>
	<g id="XMLID_802_">
		<g id="XMLID_1350_">
			<path id="XMLID_368_" class="st0" d="M167.3,258.6c-1.4,0-2.8-0.1-4.2-0.3c-1.4-0.1-2.8-0.3-4.3-0.3c-1,0-2,0.1-3.1,0.3
				c0.5-2.4,0.3-4.9,0.1-7.3c-0.4-4.8-0.8-9.4,3.8-13.9c2.3-2.3,5.5-3.6,8.8-3.6s6.4,1.3,8.8,3.6c2.3,2.3,3.6,5.5,3.6,8.8
				c0,3.3-1.3,6.4-3.6,8.8C173.6,258.1,170.2,258.6,167.3,258.6z"/>
			<path id="XMLID_72_" class="st1" d="M168.3,235.4c2.8,0,5.4,1.1,7.4,3.1c4.1,4.1,4.1,10.7,0,14.7c-3,3-5.8,3.4-8.3,3.4
				c-1.3,0-2.6-0.2-4.1-0.3c-1.4-0.1-2.9-0.3-4.4-0.3c0,0,0,0,0,0c-0.3,0-0.6,0-0.9,0c0.1-1.8-0.1-3.6-0.2-5.2
				c-0.4-4.7-0.7-8.4,3.2-12.3C162.9,236.5,165.5,235.4,168.3,235.4 M168.3,231.4c-3.7,0-7.4,1.4-10.2,4.2
				c-9.8,9.8,0.3,19.9-7.1,27.3c2.4-2.4,5-2.9,7.8-2.9c2.7,0,5.6,0.5,8.5,0.5c3.7,0,7.5-0.8,11.2-4.5c5.6-5.6,5.6-14.8,0-20.4
				C175.7,232.8,172,231.4,168.3,231.4L168.3,231.4z"/>
		</g>
		<g id="XMLID_1342_">
			<path id="XMLID_70_" class="st0" d="M247,258.5c-2.9,0-6.4-0.5-9.9-4c-2.3-2.3-3.6-5.5-3.6-8.8s1.3-6.4,3.6-8.8
				c2.3-2.3,5.5-3.6,8.8-3.6c3.3,0,6.4,1.3,8.8,3.6c4.6,4.6,4.1,9.2,3.7,14c-0.2,2.5-0.5,5,0,7.4c-1.2-0.2-2.3-0.3-3.3-0.3
				c-1.3,0-2.7,0.1-4,0.2C249.7,258.4,248.3,258.5,247,258.5z"/>
			<path id="XMLID_66_" class="st1" d="M245.8,235.3c2.8,0,5.4,1.1,7.4,3.1c3.9,3.9,3.6,7.7,3.1,12.4c-0.2,1.7-0.3,3.5-0.2,5.3
				c-0.4,0-0.7,0-1,0c-1.4,0-2.8,0.1-4.2,0.2c-1.3,0.1-2.6,0.2-3.9,0.2c-2.6,0-5.5-0.4-8.5-3.4c-4.1-4.1-4.1-10.7,0-14.7
				C240.4,236.3,243.1,235.3,245.8,235.3 M245.8,231.3c-3.7,0-7.4,1.4-10.2,4.2c-5.6,5.6-5.6,14.8,0,20.4c3.8,3.8,7.6,4.6,11.3,4.6
				c2.8,0,5.5-0.5,8.1-0.5c2.9,0,5.6,0.6,8,3c-7.4-7.4,2.8-17.7-7-27.5C253.2,232.7,249.5,231.3,245.8,231.3L245.8,231.3z"/>
		</g>
		<g id="XMLID_1335_">
			<path id="XMLID_64_" class="st0" d="M168.2,180.7c-3.3,0-6.4-1.3-8.8-3.6c-4.6-4.6-4.1-9.2-3.7-14c0.2-2.5,0.5-5,0-7.4
				c1.2,0.2,2.3,0.3,3.3,0.3c0,0,0,0,0,0c1.3,0,2.7-0.1,4-0.2c1.3-0.1,2.7-0.2,4-0.2c2.9,0,6.4,0.5,9.9,4c2.3,2.3,3.6,5.5,3.6,8.8
				s-1.3,6.4-3.6,8.8C174.6,179.4,171.5,180.7,168.2,180.7z"/>
			<path id="XMLID_60_" class="st1" d="M167,157.5c2.6,0,5.5,0.4,8.5,3.4c4.1,4.1,4.1,10.7,0,14.7c-2,2-4.6,3.1-7.4,3.1
				s-5.4-1.1-7.4-3.1c-3.9-3.9-3.6-7.7-3.1-12.4c0.2-1.7,0.3-3.5,0.2-5.3c0.4,0,0.7,0,1,0c1.4,0,2.8-0.1,4.2-0.2
				C164.5,157.6,165.8,157.5,167,157.5 M151,151c7.4,7.4-2.8,17.7,7,27.5c2.8,2.8,6.5,4.2,10.2,4.2c3.7,0,7.4-1.4,10.2-4.2
				c5.6-5.6,5.6-14.8,0-20.4c-3.8-3.8-7.6-4.6-11.3-4.6c-2.8,0-5.5,0.5-8.1,0.5C156.1,154,153.4,153.4,151,151L151,151z"/>
		</g>
		<g id="XMLID_1327_">
			<path id="XMLID_57_" class="st0" d="M154,205.3c-1.1,0-2.2-0.1-3.2-0.4c-6.2-1.7-8.2-5.9-10.2-10.3c-1-2.2-2.1-4.5-3.7-6.4
				c2.3-0.8,4.4-2.2,6.4-3.6c3.1-2.2,6.1-4.2,10.2-4.2c1.2,0,2.5,0.2,3.8,0.5c3.2,0.9,5.9,2.9,7.5,5.8s2.1,6.2,1.2,9.4
				C164.6,201.6,159.6,205.3,154,205.3z"/>
			<path id="XMLID_54_" class="st1" d="M153.5,182.4c1,0,2.1,0.2,3.3,0.5c5.6,1.5,8.9,7.2,7.4,12.8c-1.2,4.6-5.4,7.7-10.1,7.7
				c-0.9,0-1.8-0.1-2.7-0.4c-5.3-1.4-6.9-4.9-8.9-9.2c-0.7-1.5-1.5-3.2-2.4-4.7c1.6-0.8,3.1-1.9,4.4-2.8
				C147.4,184.2,150,182.4,153.5,182.4 M153.5,178.4c-9,0-13.1,8.5-20.3,8.5c-0.8,0-1.7-0.1-2.6-0.4c10.2,2.7,6.4,16.8,19.8,20.3
				c1.3,0.3,2.5,0.5,3.7,0.5c6.4,0,12.2-4.2,13.9-10.7c2.1-7.7-2.5-15.6-10.2-17.7C156.2,178.6,154.8,178.4,153.5,178.4L153.5,178.4
				z"/>
		</g>
		<g id="XMLID_1320_">
			<path id="XMLID_52_" class="st0" d="M153.6,233.8c-4.1,0-7.1-2.1-10.3-4.3c-2-1.4-4.1-2.9-6.4-3.7c1.6-1.9,2.7-4.1,3.7-6.3
				c2.1-4.4,4-8.5,10.2-10.2c1.1-0.3,2.1-0.4,3.2-0.4c5.6,0,10.5,3.8,12,9.2c0.9,3.2,0.4,6.6-1.2,9.4c-1.7,2.9-4.3,4.9-7.5,5.8
				C156,233.6,154.8,233.8,153.6,233.8z"/>
			<path id="XMLID_49_" class="st1" d="M154.1,210.9L154.1,210.9c4.7,0,8.8,3.2,10.1,7.7c0.7,2.7,0.4,5.5-1,7.9
				c-1.4,2.4-3.6,4.1-6.3,4.9c-1.1,0.3-2.2,0.5-3.2,0.5c-3.5,0-6.1-1.8-9.1-4c-1.4-1-2.9-2-4.5-2.9c1-1.5,1.8-3.2,2.4-4.7
				c2-4.3,3.6-7.7,8.9-9.1C152.3,211,153.2,210.9,154.1,210.9 M154.1,206.9c-1.2,0-2.5,0.2-3.7,0.5c-13.4,3.6-9.7,17.4-19.8,20.1
				c0.9-0.2,1.8-0.4,2.6-0.4c7.3,0,11.4,8.7,20.5,8.7c1.3,0,2.7-0.2,4.2-0.6c7.7-2.1,12.3-10,10.2-17.7
				C166.3,211.1,160.5,206.9,154.1,206.9L154.1,206.9z"/>
		</g>
		<g id="XMLID_1312_">
			<path id="XMLID_47_" class="st0" d="M188.2,277.1c-0.8-2.3-2.2-4.4-3.6-6.4c-2.8-4-5.4-7.7-3.7-14c1.5-5.4,6.4-9.2,12-9.2
				c1.1,0,2.2,0.1,3.2,0.4c3.2,0.9,5.9,2.9,7.5,5.8c1.7,2.9,2.1,6.2,1.2,9.4c-1.7,6.2-5.9,8.2-10.3,10.2
				C192.4,274.4,190.1,275.5,188.2,277.1z"/>
			<path id="XMLID_44_" class="st1" d="M192.9,249.6L192.9,249.6c0.9,0,1.8,0.1,2.7,0.4c5.6,1.5,8.9,7.2,7.4,12.8
				c-1.4,5.3-4.9,6.9-9.2,8.9c-1.5,0.7-3.2,1.5-4.7,2.5c-0.8-1.6-1.9-3.1-2.8-4.5c-2.7-3.9-4.8-6.9-3.4-12.3
				C184.1,252.7,188.2,249.6,192.9,249.6 M192.9,245.6c-6.4,0-12.2,4.2-13.9,10.7c-3.6,13.4,10.2,17.1,7.5,27.2
				c2.7-10.2,16.8-6.4,20.3-19.8c2.1-7.7-2.5-15.6-10.2-17.7C195.4,245.7,194.1,245.6,192.9,245.6L192.9,245.6z"/>
		</g>
		<g id="XMLID_1306_">
			<path id="XMLID_42_" class="st0" d="M225.8,277.1c-1.9-1.6-4.1-2.7-6.3-3.7c-4.4-2.1-8.5-4-10.2-10.2c-1.8-6.6,2.2-13.4,8.8-15.2
				c1.1-0.3,2.1-0.4,3.2-0.4c5.6,0,10.5,3.8,12,9.2c1.7,6.2-1,10-3.8,14C228.1,272.7,226.6,274.8,225.8,277.1z"/>
			<path id="XMLID_39_" class="st1" d="M221.3,249.5L221.3,249.5c4.7,0,8.8,3.2,10.1,7.7c1.4,5.3-0.7,8.4-3.5,12.3
				c-1,1.4-2,2.8-2.9,4.5c-1.5-1-3.2-1.8-4.7-2.5c-4.3-2-7.7-3.6-9.1-8.9c-0.7-2.7-0.4-5.5,1-7.9c1.4-2.4,3.6-4.1,6.3-4.9
				C219.5,249.6,220.4,249.5,221.3,249.5 M221.3,245.5c-1.2,0-2.5,0.2-3.7,0.5c-7.7,2.1-12.3,10-10.2,17.7
				c3.6,13.4,17.4,9.7,20.1,19.8c-2.7-10.2,11.3-13.9,7.7-27.3C233.5,249.7,227.7,245.5,221.3,245.5L221.3,245.5z"/>
		</g>
		<g id="XMLID_1159_">
			<path id="XMLID_37_" class="st0" d="M260.5,233.6c-1.2,0-2.5-0.2-3.8-0.5c-6.6-1.8-10.6-8.6-8.8-15.2c1.5-5.4,6.4-9.2,12-9.2
				c1.1,0,2.2,0.1,3.2,0.4c6.2,1.7,8.2,5.9,10.2,10.3c1,2.2,2.1,4.5,3.7,6.4c-2.3,0.8-4.4,2.2-6.4,3.6
				C267.6,231.6,264.7,233.6,260.5,233.6z"/>
			<path id="XMLID_34_" class="st1" d="M260,210.7c0.9,0,1.8,0.1,2.7,0.4c5.3,1.4,6.9,4.9,8.9,9.2c0.7,1.5,1.5,3.2,2.4,4.7
				c-1.6,0.8-3.1,1.9-4.4,2.8c-3,2.1-5.5,3.9-9,3.9c-1,0-2.1-0.2-3.3-0.5c-2.7-0.7-4.9-2.4-6.3-4.9s-1.8-5.2-1-7.9
				C251.1,213.8,255.3,210.7,260,210.7 M260,206.7c-6.4,0-12.2,4.2-13.9,10.7c-2.1,7.7,2.5,15.6,10.2,17.7c1.6,0.4,3,0.6,4.3,0.6
				c9,0,13.1-8.5,20.3-8.5c0.8,0,1.7,0.1,2.6,0.4c-10.2-2.7-6.4-16.8-19.8-20.3C262.5,206.8,261.2,206.7,260,206.7L260,206.7z"/>
		</g>
		<g id="XMLID_1153_">
			<path id="XMLID_32_" class="st0" d="M259.9,205.1c-5.6,0-10.5-3.8-12-9.2c-1.8-6.6,2.2-13.4,8.8-15.2c1.3-0.3,2.5-0.5,3.7-0.5
				c4.1,0,7.1,2.1,10.3,4.3c2,1.4,4.1,2.9,6.4,3.7c-1.6,1.9-2.7,4.1-3.7,6.3c-2.1,4.4-4,8.5-10.2,10.2
				C262.1,205,261,205.1,259.9,205.1z"/>
			<path id="XMLID_29_" class="st1" d="M260.4,182.2c3.5,0,6.1,1.8,9.1,4c1.4,1,2.9,2,4.5,2.9c-1,1.5-1.8,3.2-2.4,4.7
				c-2,4.3-3.6,7.7-8.9,9.1c-0.9,0.2-1.8,0.4-2.7,0.4c-4.7,0-8.8-3.2-10.1-7.7c-1.5-5.6,1.8-11.3,7.4-12.8
				C258.3,182.3,259.4,182.2,260.4,182.2 M260.4,178.2c-1.3,0-2.7,0.2-4.2,0.6c-7.7,2.1-12.3,10-10.2,17.7
				c1.7,6.4,7.6,10.7,13.9,10.7c1.2,0,2.5-0.2,3.7-0.5c13.4-3.6,9.7-17.4,19.8-20.1c-0.9,0.2-1.8,0.4-2.6,0.4
				C273.6,186.9,269.5,178.2,260.4,178.2L260.4,178.2z"/>
		</g>
		<g id="XMLID_1147_">
			<path id="XMLID_27_" class="st0" d="M245.7,180.6c-3.3,0-6.4-1.3-8.8-3.6c-4.8-4.8-4.8-12.7,0-17.6c3.5-3.5,6.9-4,9.8-4
				c1.4,0,2.8,0.1,4.2,0.3c1.4,0.1,2.8,0.3,4.3,0.3c1,0,2-0.1,3.1-0.3c-0.5,2.4-0.3,4.9-0.1,7.3c0.4,4.8,0.8,9.4-3.8,13.9
				C252.1,179.3,249,180.6,245.7,180.6z"/>
			<path id="XMLID_24_" class="st1" d="M246.7,157.4c1.3,0,2.6,0.1,4.1,0.3c1.4,0.1,2.9,0.3,4.4,0.3c0.3,0,0.6,0,0.9,0
				c-0.1,1.8,0.1,3.6,0.2,5.2c0.4,4.7,0.7,8.4-3.2,12.3c-2,2-4.6,3.1-7.4,3.1s-5.4-1.1-7.4-3.1c-4.1-4.1-4.1-10.7,0-14.7
				C241.3,157.8,244.1,157.4,246.7,157.4 M263,151c-2.4,2.4-5,2.9-7.8,2.9c-2.7,0-5.6-0.5-8.5-0.5c-3.7,0-7.5,0.8-11.2,4.5
				c-5.6,5.6-5.6,14.8,0,20.4c2.8,2.8,6.5,4.2,10.2,4.2s7.4-1.4,10.2-4.2C265.7,168.6,255.6,158.4,263,151L263,151z"/>
		</g>
		<g id="XMLID_1125_">
			<path id="XMLID_21_" class="st0" d="M221.1,166.4c-1.1,0-2.2-0.1-3.2-0.4c-6.6-1.8-10.6-8.6-8.8-15.2c1.7-6.2,5.9-8.2,10.3-10.2
				c2.2-1,4.5-2.1,6.4-3.7c0.8,2.3,2.2,4.4,3.6,6.4c2.8,4,5.4,7.7,3.7,14C231.6,162.7,226.7,166.4,221.1,166.4z"/>
			<path id="XMLID_18_" class="st1" d="M224.9,140c0.8,1.6,1.9,3.1,2.8,4.5c2.7,3.9,4.8,6.9,3.4,12.3c-1.2,4.6-5.4,7.7-10.1,7.7
				c-0.9,0-1.8-0.1-2.7-0.4c-5.6-1.5-8.9-7.2-7.4-12.8c1.4-5.3,4.9-6.9,9.2-8.9C221.7,141.7,223.4,141,224.9,140 M227.5,130.5
				c-2.7,10.2-16.8,6.4-20.3,19.8c-2.1,7.7,2.5,15.6,10.2,17.7c1.3,0.3,2.5,0.5,3.7,0.5c6.4,0,12.2-4.2,13.9-10.7
				C238.6,144.4,224.8,140.7,227.5,130.5L227.5,130.5z"/>
		</g>
		<g id="XMLID_803_">
			<path id="XMLID_16_" class="st0" d="M192.7,166.5c-5.6,0-10.5-3.8-12-9.2c-1.7-6.2,1-10,3.8-14c1.4-2,2.9-4.1,3.7-6.4
				c1.9,1.6,4.1,2.7,6.3,3.7c4.4,2.1,8.5,4,10.2,10.2c0.9,3.2,0.4,6.6-1.2,9.4c-1.7,2.9-4.3,4.9-7.5,5.8
				C194.9,166.4,193.8,166.5,192.7,166.5z"/>
			<path id="XMLID_13_" class="st1" d="M189,140c1.5,1,3.2,1.8,4.7,2.5c4.3,2,7.7,3.6,9.1,8.9c1.5,5.6-1.8,11.3-7.4,12.8
				c-0.9,0.2-1.8,0.4-2.7,0.4c-4.7,0-8.8-3.2-10.1-7.7c-1.4-5.3,0.7-8.4,3.5-12.3C187.1,143.1,188.2,141.6,189,140 M186.5,130.5
				c2.7,10.2-11.3,13.9-7.7,27.3c1.7,6.4,7.6,10.7,13.9,10.7c1.2,0,2.5-0.2,3.7-0.5c7.7-2.1,12.3-10,10.2-17.7
				C203,137,189.2,140.7,186.5,130.5L186.5,130.5z"/>
		</g>
	</g>
</g>
</svg>
